<svg xmlns="http://www.w3.org/2000/svg" width="1426" height="735" viewBox="0 0 1426 735">
<g>
<path d="M 170.80 221.80 C169.90,222.70 157.88,223.00 122.85,223.00 L 76.10 223.00 L 73.69 219.75 C71.77,217.15 52.85,184.28 30.89,145.38 C29.30,142.56 28.00,139.41 28.00,138.38 C28.01,137.35 31.98,129.52 36.82,121.00 C59.12,81.78 73.32,57.35 74.75,55.75 C76.19,54.13 79.80,54.00 123.03,54.00 L 124.10 54.00 C162.93,54.00 170.98,54.00 171.86,56.50 C172.09,57.16 171.82,57.98 171.49,59.03 L 171.46 59.14 C171.07,60.36 161.98,76.70 151.27,95.43 L 151.24 95.49 C128.93,134.48 127.07,137.74 127.93,139.93 C128.01,140.13 128.11,140.33 128.22,140.54 C130.37,144.60 148.79,177.28 160.17,197.22 C166.68,208.62 172.00,218.54 172.00,219.27 C172.00,220.00 171.46,221.14 170.80,221.80 ZM 713.91 221.16 C712.98,222.91 710.54,223.00 666.16,223.00 C630.27,223.00 619.01,222.71 617.77,221.75 C616.04,220.42 611.57,212.80 586.54,168.64 C577.85,153.31 570.75,139.75 570.75,138.51 C570.75,137.26 574.92,128.87 580.02,119.87 C604.42,76.78 614.46,59.27 616.22,56.75 L 618.14 54.00 L 664.49 54.00 C689.98,54.00 711.55,54.27 712.42,54.61 C714.45,55.39 714.43,58.26 712.36,62.30 C710.99,64.98 700.94,82.75 673.89,130.34 C671.75,134.10 670.00,137.74 670.00,138.43 C670.00,139.11 676.83,151.79 685.18,166.59 C686.76,169.38 688.25,172.03 689.67,174.53 C713.55,216.86 714.92,219.28 714.22,220.65 C714.13,220.81 714.02,220.96 713.91,221.16 ZM 442.00 221.51 C440.93,222.79 434.32,223.00 394.49,223.00 C351.86,223.00 348.06,222.86 346.21,221.25 C344.49,219.74 326.90,189.42 304.99,150.18 L 298.67 138.86 L 300.88 134.32 C304.24,127.40 344.05,57.74 345.79,55.75 C347.20,54.13 350.76,54.00 393.57,54.00 C419.02,54.00 440.55,54.27 441.42,54.61 C442.29,54.94 443.00,56.15 443.00,57.30 C443.00,58.45 433.38,76.29 421.62,96.95 C409.86,117.60 399.75,135.46 399.15,136.63 C398.20,138.47 400.93,143.79 420.17,177.63 C432.33,199.01 442.50,217.29 442.76,218.26 C443.02,219.22 442.68,220.68 442.00,221.51 ZM 985.00 220.99 C983.95,222.96 982.97,223.00 937.04,223.00 C896.67,223.00 889.93,222.79 888.64,221.50 C884.45,217.31 842.00,141.62 842.00,138.34 C842.00,136.91 845.77,129.16 850.37,121.12 C854.98,113.08 865.14,95.25 872.96,81.50 C880.78,67.75 887.90,55.94 888.78,55.25 C890.01,54.29 901.27,54.00 937.22,54.00 C939.35,54.00 941.39,54.00 943.34,54.00 C976.65,53.99 984.35,53.99 985.19,56.39 C985.44,57.11 985.07,58.05 984.59,59.27 C984.50,59.50 984.40,59.75 984.30,60.01 C983.74,61.51 973.76,79.44 962.14,99.88 C950.51,120.31 941.00,137.64 941.00,138.38 C941.00,139.13 943.76,144.64 947.14,150.62 C959.16,171.94 978.30,205.61 982.16,212.24 C985.38,217.78 985.89,219.34 985.00,220.99 ZM 1255.99 221.03 C1254.96,222.95 1253.70,223.00 1208.14,223.00 L 1161.35 223.00 L 1159.27 220.75 C1156.65,217.92 1154.89,214.91 1131.85,174.07 C1121.48,155.68 1113.01,139.71 1113.02,138.57 C1113.05,136.31 1113.68,135.12 1132.70,101.46 C1153.66,64.38 1158.25,56.57 1159.86,55.25 C1161.03,54.29 1172.22,54.00 1208.16,54.00 C1254.04,54.00 1254.95,54.04 1256.01,56.02 C1256.93,57.74 1253.86,63.71 1234.54,97.63 C1222.14,119.41 1212.00,137.80 1212.00,138.49 C1212.00,139.80 1213.72,142.90 1240.67,190.28 C1254.48,214.55 1256.88,219.36 1255.99,221.03 ZM 712.80 626.80 C711.90,627.70 700.12,628.00 665.93,628.00 C662.08,628.00 658.53,628.00 655.27,628.01 C626.67,628.05 619.53,628.06 615.86,624.49 C614.22,622.90 613.28,620.59 611.42,617.24 C609.36,613.53 599.37,595.92 589.21,578.09 C579.06,560.26 570.75,544.72 570.75,543.55 C570.75,542.38 573.80,536.04 577.53,529.46 C601.06,487.96 616.33,461.33 617.22,460.25 C618.01,459.28 628.91,459.00 665.50,459.00 L 666.08 459.00 C705.33,459.00 714.10,459.00 714.82,461.40 C715.03,462.09 714.56,462.98 713.97,464.13 L 713.94 464.19 C712.60,466.78 689.52,507.69 678.41,527.19 C674.43,534.17 670.87,540.83 670.51,541.98 C669.83,544.12 674.66,553.19 702.68,602.35 C708.91,613.27 714.00,622.97 714.00,623.90 C714.00,624.84 713.46,626.14 712.80,626.80 ZM 170.07 626.96 C168.81,627.63 152.10,628.00 122.68,628.00 C80.84,628.00 77.06,627.86 75.17,626.25 C72.01,623.56 28.00,545.96 28.00,543.08 C28.00,542.40 32.14,534.56 37.19,525.67 C64.95,476.84 73.34,462.33 74.76,460.74 C76.22,459.10 79.56,459.00 123.91,459.24 C171.17,459.50 171.50,459.51 171.80,461.57 C171.96,462.75 168.33,470.28 163.35,479.07 C158.55,487.56 148.41,505.50 140.83,518.95 L 127.04 543.41 L 130.14 548.95 C131.84,552.00 141.96,569.85 152.62,588.61 C163.28,607.37 172.00,623.44 172.00,624.32 C172.00,625.21 171.13,626.40 170.07,626.96 ZM 984.41 626.10 C982.77,627.91 980.61,628.00 937.07,628.00 C897.77,628.00 891.14,627.79 889.26,626.47 C887.15,624.99 883.75,619.49 869.52,594.50 C848.40,557.42 842.83,547.24 842.34,544.89 C842.29,544.62 842.23,544.39 842.19,544.16 C841.73,541.58 843.42,538.61 876.96,479.70 L 880.77 473.00 C884.38,466.67 888.01,460.94 888.85,460.25 C890.03,459.29 901.31,459.00 937.62,459.00 C983.50,459.00 984.88,459.06 985.48,460.94 C985.92,462.32 980.27,473.07 965.92,498.19 C954.82,517.61 944.60,535.81 943.22,538.63 L 940.70 543.77 L 944.51 550.63 C946.61,554.41 956.83,572.51 967.23,590.85 C985.34,622.81 986.06,624.28 984.41,626.10 ZM 1354.72 318.75 L 1352.65 321.00 L 1306.48 321.00 C1263.76,321.00 1260.20,320.87 1258.79,319.25 C1256.96,317.16 1257.19,316.38 1262.04,308.00 C1278.92,278.85 1302.00,237.53 1302.00,236.45 C1302.00,235.72 1298.92,229.81 1295.17,223.31 C1266.84,174.35 1256.72,155.66 1257.70,154.11 C1258.61,152.67 1263.68,152.47 1304.61,152.22 C1329.85,152.07 1351.47,152.18 1352.65,152.47 C1354.15,152.83 1357.34,157.41 1363.27,167.74 C1389.38,213.19 1401.00,234.41 1401.00,236.64 C1401.00,238.02 1399.24,242.15 1397.09,245.83 C1394.94,249.50 1384.99,266.90 1374.99,284.50 C1364.98,302.10 1355.86,317.51 1354.72,318.75 ZM 539.95 320.03 C538.85,320.62 520.28,321.00 492.64,321.00 C451.93,321.00 446.97,320.83 445.51,319.37 C444.61,318.47 444.16,317.02 444.50,316.12 C444.84,315.23 449.99,305.95 455.93,295.50 C484.76,244.83 489.14,236.80 488.63,235.49 C488.34,234.71 479.81,219.55 469.69,201.79 L 467.95 198.73 C445.40,159.15 443.49,155.80 444.46,154.18 C444.57,153.99 444.73,153.83 444.89,153.63 C446.11,152.17 451.01,152.00 492.95,152.00 L 539.65 152.00 L 541.68 154.25 C542.80,155.49 548.79,165.50 554.99,176.50 C561.19,187.50 571.15,205.10 577.13,215.60 C583.11,226.11 588.00,235.49 588.00,236.44 C588.00,237.99 576.21,259.19 550.27,304.28 C545.60,312.40 540.96,319.49 539.95,320.03 ZM 269.79 319.25 C267.94,320.86 264.16,321.00 221.96,321.00 C181.64,321.00 175.95,320.81 174.57,319.43 C173.71,318.56 173.00,317.56 173.00,317.21 C173.00,316.41 180.19,303.51 201.79,265.52 L 218.28 236.54 L 216.30 233.02 C215.21,231.08 205.42,213.85 194.56,194.71 C172.66,156.17 171.78,154.38 174.01,152.97 C174.89,152.42 194.77,152.02 222.08,152.02 L 268.65 152.00 L 270.65 154.25 C271.74,155.49 277.07,164.38 282.48,174.00 C287.89,183.62 296.92,199.60 302.53,209.50 C313.93,229.58 317.00,235.42 317.00,236.99 C317.00,238.83 271.90,317.41 269.79,319.25 ZM 813.50 722.75 L 810.91 726.00 L 764.53 726.00 C724.24,726.00 717.94,725.80 716.61,724.47 C714.73,722.58 714.96,721.94 722.04,709.50 C743.01,672.67 758.15,645.76 759.12,643.63 C759.28,643.29 759.44,643.02 759.54,642.74 C760.30,640.75 758.68,637.86 738.10,601.22 C736.91,599.10 735.66,596.86 734.33,594.50 C724.45,576.90 716.10,561.77 715.76,560.87 C714.37,557.14 716.15,557.00 764.58,557.00 C805.35,557.00 811.92,557.20 813.00,558.50 C814.11,559.84 826.31,581.32 851.11,625.59 C855.45,633.34 859.00,640.58 859.00,641.67 C859.00,643.86 817.66,717.52 813.50,722.75 ZM 269.69 724.51 C266.62,726.66 177.42,726.76 174.48,724.61 C174.04,724.29 173.60,724.16 173.34,723.87 C172.19,722.56 174.84,717.90 198.44,676.43 C200.67,672.50 203.10,668.23 205.72,663.61 L 218.17 641.73 L 215.43 636.61 C211.69,629.61 181.69,576.09 176.82,567.73 C176.34,566.89 175.86,566.11 175.43,565.40 C173.82,562.76 172.71,560.94 173.16,559.70 C174.17,556.93 182.92,556.98 211.12,557.17 C214.55,557.19 218.27,557.22 222.30,557.24 L 270.46 557.50 L 280.84 576.00 C286.55,586.17 297.02,604.70 304.11,617.17 C311.20,629.63 317.00,640.59 317.00,641.51 C317.00,642.43 308.52,658.11 298.16,676.34 C287.80,694.58 277.64,712.54 275.57,716.26 C273.51,719.97 270.86,723.68 269.69,724.51 ZM 1255.39 626.47 C1254.06,627.80 1247.88,628.00 1207.98,628.00 L 1162.11 628.00 L 1159.61 625.75 C1157.37,623.74 1120.43,560.11 1114.93,548.79 C1113.55,545.95 1112.95,543.36 1113.33,541.87 C1113.67,540.57 1118.72,531.17 1124.56,521.00 C1130.40,510.83 1140.37,493.27 1146.71,482.00 C1153.05,470.73 1158.95,460.93 1159.82,460.24 C1161.06,459.26 1171.91,459.04 1208.94,459.24 C1252.06,459.48 1256.50,459.65 1256.79,461.14 C1257.04,462.47 1234.23,503.77 1215.90,535.17 C1213.75,538.85 1212.00,542.41 1212.00,543.11 C1212.00,544.39 1223.26,564.72 1243.75,600.43 C1257.23,623.92 1257.45,624.41 1255.39,626.47 ZM 540.70 724.49 C538.86,725.78 531.99,726.00 493.03,725.97 C448.44,725.94 444.00,725.65 444.00,722.75 C444.00,722.11 447.45,715.50 451.67,708.05 C455.89,700.60 466.01,682.74 474.17,668.36 C482.33,653.98 489.00,641.92 489.00,641.55 C489.00,641.18 478.86,622.75 466.47,600.59 C451.61,574.01 444.16,559.74 444.58,558.64 C445.17,557.12 449.25,557.00 493.36,557.24 L 541.50 557.50 L 550.58 573.50 C555.57,582.30 565.89,600.49 573.50,613.92 C581.11,627.35 587.54,639.35 587.77,640.58 C588.21,642.89 586.58,646.14 573.47,669.00 C569.53,675.88 561.03,690.83 554.58,702.24 C548.13,713.65 541.89,723.67 540.70,724.49 ZM 441.07 626.96 C438.49,628.35 350.31,628.26 347.45,626.87 C346.32,626.32 344.79,624.89 344.03,623.69 C341.36,619.41 300.87,547.80 299.80,545.46 C298.86,543.39 299.38,541.88 303.70,534.29 C306.44,529.45 316.71,511.33 326.52,494.00 C336.33,476.67 345.02,461.71 345.84,460.74 C347.23,459.10 350.54,459.00 394.91,459.24 L 442.50 459.50 L 442.81 461.64 C443.00,462.97 434.75,478.56 420.89,503.08 C408.67,524.70 398.67,542.89 398.67,543.50 C398.67,544.54 403.09,552.48 432.14,603.61 C438.11,614.11 443.00,623.43 443.00,624.32 C443.00,625.21 442.13,626.40 441.07,626.96 ZM 1083.25 724.75 C1082.00,725.71 1070.84,726.00 1035.38,726.00 C994.81,726.00 988.95,725.81 987.58,724.44 C987.26,724.12 986.93,723.98 986.73,723.73 C985.74,722.50 987.85,718.77 1009.80,679.91 C1011.95,676.10 1014.30,671.95 1016.85,667.43 C1024.63,653.64 1031.00,641.80 1031.00,641.11 C1031.00,640.42 1028.12,634.83 1024.61,628.68 C1021.09,622.53 1016.21,613.90 1013.77,609.50 C1011.33,605.10 1004.28,592.56 998.11,581.63 C991.37,569.70 987.01,560.91 987.20,559.63 L 987.50 557.50 L 1034.89 557.24 C1068.93,557.05 1082.65,557.30 1083.63,558.11 C1084.38,558.73 1087.87,564.47 1091.40,570.87 C1094.93,577.27 1105.05,595.30 1113.91,610.95 C1122.76,626.60 1130.00,640.47 1130.00,641.78 C1130.00,643.08 1128.24,647.15 1126.09,650.83 C1123.94,654.50 1113.78,672.35 1103.52,690.50 C1093.27,708.65 1084.14,724.06 1083.25,724.75 ZM 1083.71 318.75 L 1081.65 321.00 L 1035.53 321.00 C987.46,321.00 987.00,320.96 987.00,316.78 C987.00,315.79 996.16,298.89 1007.35,279.23 C1029.13,240.99 1031.00,237.58 1031.00,236.21 C1031.00,235.73 1027.03,228.39 1022.19,219.92 C989.96,163.54 985.72,155.67 986.71,154.09 C987.60,152.68 992.91,152.47 1033.61,152.22 C1058.85,152.07 1080.46,152.18 1081.63,152.46 C1083.16,152.83 1087.09,158.83 1095.56,173.74 C1102.05,185.16 1112.45,203.46 1118.68,214.41 C1124.91,225.37 1130.00,235.31 1130.00,236.52 C1130.00,238.88 1087.15,314.99 1083.71,318.75 ZM 812.44 319.06 C810.76,320.93 808.92,321.00 764.42,321.00 C724.16,321.00 717.94,320.80 716.61,319.47 C714.53,317.39 714.55,317.35 730.73,288.96 C756.01,244.58 760.00,237.41 760.00,236.40 C760.00,235.84 756.03,228.44 751.18,219.94 C717.84,161.59 714.68,155.73 715.70,154.11 C716.61,152.67 721.64,152.47 762.61,152.22 C787.85,152.07 809.43,152.17 810.58,152.45 C812.63,152.95 815.45,157.66 847.95,215.00 C854.02,225.73 859.00,235.40 859.00,236.50 C859.00,238.57 815.54,315.64 812.44,319.06 ZM 813.89 520.15 L 811.89 522.96 L 765.25 523.23 C762.10,523.25 759.13,523.27 756.35,523.29 C725.71,523.48 716.56,523.54 715.50,520.65 C715.05,519.41 716.06,517.64 717.51,515.12 C717.82,514.58 718.14,514.01 718.48,513.40 C721.75,507.51 750.40,456.92 757.61,444.32 C758.92,442.02 760.00,439.65 760.00,439.04 C760.00,438.44 749.83,419.96 737.39,397.98 C723.96,374.24 715.01,357.41 715.36,356.51 C715.86,355.19 722.07,355.00 763.98,355.00 L 812.02 355.00 L 815.36 360.25 C824.07,373.97 859.00,437.19 858.99,439.21 C858.98,440.47 857.81,443.52 856.38,446.00 C854.96,448.48 845.26,465.54 834.84,483.92 C824.42,502.30 815.00,518.60 813.89,520.15 ZM 1355.24 521.25 C1353.81,522.87 1350.18,523.00 1306.47,523.00 C1265.71,523.00 1259.07,522.79 1258.00,521.50 C1256.97,520.26 1257.96,517.90 1263.75,507.75 C1267.60,501.01 1275.58,486.95 1281.49,476.50 C1287.39,466.05 1294.43,453.66 1297.11,448.97 C1299.80,444.27 1302.00,439.79 1302.00,439.00 C1302.00,438.21 1298.54,431.48 1294.32,424.03 C1290.10,416.59 1282.29,402.85 1276.97,393.50 C1257.73,359.68 1256.97,358.24 1257.60,356.61 C1258.15,355.16 1262.97,355.00 1305.95,355.00 C1350.16,355.00 1353.80,355.13 1355.24,356.75 C1356.65,358.35 1388.03,413.07 1397.88,431.12 C1400.67,436.24 1401.81,439.36 1401.35,440.62 C1400.97,441.65 1397.53,447.90 1393.71,454.50 C1389.89,461.10 1380.02,478.42 1371.78,493.00 C1363.54,507.58 1356.09,520.29 1355.24,521.25 ZM 1084.22 521.25 C1082.80,522.87 1079.19,523.00 1035.38,523.00 C990.55,523.00 988.02,522.90 987.09,521.17 C986.31,519.72 987.52,516.86 992.88,507.42 C1023.81,453.01 1031.00,440.11 1031.00,439.05 C1031.00,438.39 1021.01,420.23 1008.81,398.70 C996.60,377.17 986.59,358.65 986.56,357.53 C986.50,355.52 987.00,355.50 1034.59,355.24 C1079.43,355.00 1082.78,355.10 1084.20,356.74 C1085.04,357.71 1093.14,371.55 1102.20,387.50 L 1104.18 390.99 C1128.46,433.75 1130.16,436.74 1129.83,439.48 C1129.79,439.76 1129.74,440.04 1129.68,440.35 C1129.38,442.08 1121.43,457.00 1112.00,473.50 C1102.58,490.00 1092.82,507.10 1090.31,511.50 C1087.81,515.90 1085.07,520.29 1084.22,521.25 ZM 542.51 519.75 L 539.80 523.00 L 493.10 523.00 C446.84,523.00 444.00,522.82 444.00,519.81 C444.00,519.37 453.16,502.92 464.35,483.26 C475.55,463.59 485.70,445.55 486.92,443.16 L 489.13 438.82 L 482.38 426.66 C478.67,419.97 471.53,407.30 466.51,398.50 C448.37,366.70 443.79,358.00 444.36,356.51 C444.86,355.19 451.07,355.00 492.86,355.00 L 540.79 355.00 L 543.78 359.75 C546.68,364.35 569.32,404.07 581.85,426.53 C585.23,432.59 588.00,438.32 588.00,439.26 C588.00,441.38 546.24,515.27 542.51,519.75 ZM 984.87 423.24 C983.99,424.88 980.80,425.00 936.62,425.00 C892.82,425.00 889.20,424.87 887.77,423.25 C886.39,421.68 847.70,354.21 843.64,346.30 C842.74,344.54 842.00,342.04 842.00,340.76 C842.00,338.78 879.09,272.21 886.58,260.75 L 889.03 257.00 L 936.91 257.00 C980.67,257.00 984.84,257.14 985.43,258.67 C985.85,259.77 978.64,273.35 963.97,299.06 C951.81,320.35 941.63,338.70 941.34,339.83 C940.79,341.90 942.65,345.35 972.78,398.49 C983.00,416.51 985.61,421.85 984.87,423.24 ZM 442.31 422.87 C441.39,424.33 436.51,424.53 394.32,424.76 L 347.37 425.02 L 345.34 422.76 C343.41,420.60 308.73,360.25 301.98,347.31 L 298.76 341.13 L 303.98 331.44 C313.05,314.62 344.09,260.58 345.74,258.75 C347.19,257.13 350.83,257.00 394.69,257.00 C438.17,257.00 442.12,257.14 442.71,258.68 C443.50,260.74 442.65,262.36 417.67,306.16 L 397.91 340.83 L 402.81 349.66 C405.51,354.52 413.11,367.95 419.70,379.50 C443.32,420.90 443.42,421.11 442.31,422.87 ZM 713.87 423.24 C712.99,424.88 709.77,425.00 665.62,425.00 C621.82,425.00 618.19,424.87 616.75,423.25 C615.22,421.54 577.36,355.58 573.14,347.29 C571.96,344.97 571.00,342.08 571.00,340.85 C571.00,339.63 573.55,334.10 576.66,328.56 C596.91,292.56 615.49,260.24 616.80,258.74 C618.22,257.10 621.55,257.00 665.91,257.24 L 713.50 257.50 L 713.82 259.73 C714.12,261.86 709.10,271.11 683.24,316.00 C678.02,325.08 672.70,334.35 671.42,336.60 L 669.09 340.71 L 675.44 352.10 C678.93,358.37 689.22,376.54 698.30,392.49 C711.28,415.27 714.61,421.85 713.87,423.24 ZM 171.31 422.87 C170.39,424.33 165.51,424.53 123.32,424.76 L 76.37 425.02 L 74.30 422.76 C72.31,420.58 32.95,352.15 29.38,344.67 C27.74,341.23 27.73,340.78 29.30,337.51 C32.71,330.35 72.38,261.42 74.33,259.24 L 76.37 256.98 L 123.92 257.24 C168.89,257.49 171.49,257.60 171.82,259.31 C172.01,260.31 164.20,275.09 154.39,292.31 C144.61,309.46 134.42,327.42 131.74,332.21 L 126.88 340.91 L 137.78 360.21 C143.78,370.82 154.01,388.89 160.51,400.37 C169.85,416.84 172.13,421.58 171.31,422.87 ZM 270.71 520.75 L 268.65 523.00 L 221.39 523.00 C174.86,523.00 174.12,522.97 173.49,520.98 C173.02,519.50 177.89,510.10 191.77,485.73 C193.70,482.34 195.49,479.19 197.15,476.28 C216.67,442.00 218.21,439.28 217.44,437.68 C217.31,437.40 217.11,437.16 216.92,436.80 C215.53,434.13 206.27,417.69 194.50,397.00 C175.63,363.84 172.90,358.74 173.21,357.16 C173.50,355.65 177.72,355.48 221.18,355.24 C262.67,355.01 269.03,355.18 270.35,356.50 C271.69,357.83 282.65,376.82 309.52,424.36 C316.56,436.82 317.25,438.50 316.32,440.97 C314.67,445.34 272.98,518.26 270.71,520.75 ZM 1255.94 423.12 C1254.97,424.92 1252.94,425.00 1207.48,425.00 L 1160.03 425.00 L 1157.56 421.25 C1150.18,410.03 1113.00,343.21 1113.00,341.16 C1113.00,339.17 1149.50,273.39 1157.63,260.74 L 1160.04 256.98 L 1208.26 257.24 C1250.56,257.47 1256.51,257.69 1256.77,259.03 C1256.93,259.87 1246.92,278.29 1234.53,299.97 C1222.14,321.65 1212.00,340.01 1212.00,340.78 C1212.00,342.43 1213.65,345.43 1238.17,388.37 C1253.61,415.39 1256.77,421.57 1255.94,423.12 ZM 721.69 518.25 C721.93,518.66 741.66,519.00 765.54,519.00 L 808.97 519.00 L 811.39 515.25 C812.72,513.19 823.09,495.20 834.43,475.27 L 855.06 439.04 L 850.38 430.77 C830.01,394.76 812.38,364.04 810.78,361.75 L 808.86 359.00 L 764.93 359.00 C740.77,359.00 721.00,359.17 721.00,359.37 C721.00,359.58 728.13,372.29 736.84,387.62 L 739.52 392.34 C763.39,434.36 765.31,437.73 764.55,440.32 C764.46,440.64 764.32,440.95 764.19,441.32 C763.16,444.04 748.36,470.41 728.46,505.00 C724.50,511.88 721.45,517.84 721.69,518.25 ZM 992.79 518.45 C993.09,518.75 1012.76,519.00 1036.51,519.00 C1076.39,519.00 1079.80,518.87 1081.19,517.25 C1082.02,516.29 1089.57,503.35 1097.98,488.50 C1106.38,473.65 1116.16,456.45 1119.72,450.27 L 1126.18 439.04 L 1117.73 424.27 C1113.09,416.15 1103.78,399.83 1097.04,388.00 C1090.31,376.17 1083.71,364.81 1082.39,362.75 L 1079.97 359.00 L 1035.99 359.00 C1011.79,359.00 992.00,359.22 992.00,359.48 C992.00,359.75 993.29,362.11 994.86,364.73 C998.36,370.56 1026.07,419.53 1031.95,430.27 C1034.82,435.52 1036.02,438.77 1035.64,440.27 C1035.33,441.50 1025.44,459.47 1013.66,480.20 C1001.88,500.94 992.48,518.15 992.79,518.45 ZM 76.69 215.75 L 79.10 219.00 L 121.99 219.00 C148.75,219.00 165.11,218.63 165.48,218.03 C165.82,217.49 157.43,201.85 146.85,183.28 C144.16,178.56 141.76,174.35 139.61,170.58 C123.40,142.17 121.59,138.99 122.45,136.95 C122.68,136.42 123.08,135.96 123.46,135.17 C124.41,133.18 134.37,115.46 145.59,95.79 C156.82,76.13 166.00,59.80 166.00,59.52 C166.00,59.23 146.26,59.00 122.12,59.00 C88.23,59.00 78.01,59.28 77.23,60.25 C75.10,62.88 33.00,137.27 33.00,138.40 C33.00,139.06 38.22,148.80 44.61,160.05 C50.99,171.30 60.28,187.70 65.24,196.50 C70.21,205.30 75.36,213.96 76.69,215.75 ZM 891.74 217.75 C893.00,218.70 903.47,219.00 936.13,219.00 C959.64,219.00 979.07,218.66 979.30,218.25 C979.53,217.84 969.90,200.18 957.88,179.00 C945.87,157.82 936.03,139.69 936.02,138.70 C935.99,136.11 940.80,127.37 978.07,62.25 L 979.93 59.00 L 891.27 59.00 L 871.74 93.25 C861.00,112.09 850.82,130.00 849.11,133.07 L 846.02 138.63 L 855.34 155.07 C860.46,164.10 870.38,181.62 877.38,194.00 C884.38,206.38 890.84,217.06 891.74,217.75 ZM 349.19 217.25 C351.06,218.86 354.68,219.00 393.55,219.00 C420.32,219.00 436.11,218.64 436.49,218.01 C436.83,217.47 427.35,199.81 415.44,178.76 C403.53,157.72 393.77,139.52 393.76,138.32 C393.76,137.11 403.66,118.77 415.78,97.56 L 437.80 58.98 L 393.18 59.24 L 348.56 59.50 L 326.32 98.50 C314.08,119.95 304.06,137.87 304.04,138.33 C303.96,139.97 347.20,215.54 349.19,217.25 ZM 620.72 217.75 C623.21,219.63 706.85,219.56 707.57,217.68 C707.85,216.95 702.97,207.39 696.72,196.43 C671.46,152.07 665.00,140.26 665.00,138.40 C665.00,136.61 674.32,119.69 699.09,76.50 L 708.84 59.50 L 664.73 59.24 C640.47,59.10 620.29,59.32 619.88,59.74 C619.17,60.47 593.13,106.06 580.94,127.91 L 575.13 138.32 L 577.48 142.91 C583.75,155.19 619.27,216.66 620.72,217.75 ZM 76.90 418.72 L 78.50 420.94 L 121.69 420.97 C146.97,420.99 165.12,420.62 165.45,420.08 C165.76,419.57 162.70,413.39 158.64,406.33 C143.80,380.51 126.20,349.39 124.11,345.25 L 121.96 341.01 L 124.60 335.75 C126.06,332.86 135.71,315.64 146.07,297.47 C156.42,279.31 165.19,263.66 165.56,262.70 C166.19,261.06 163.75,260.96 123.82,261.02 C100.49,261.05 80.51,261.32 79.41,261.60 C78.05,261.96 71.89,271.79 59.96,292.68 C36.72,333.36 33.00,340.07 33.00,341.25 C33.00,342.30 74.12,414.85 76.90,418.72 ZM 1162.77 217.75 C1164.00,218.71 1174.46,219.00 1207.13,219.00 C1230.64,219.00 1250.09,218.66 1250.35,218.25 C1250.60,217.83 1240.96,200.17 1228.91,179.00 C1216.87,157.82 1207.01,139.59 1207.01,138.47 C1207.00,137.35 1216.49,119.80 1228.08,99.47 C1239.67,79.14 1249.59,61.71 1250.11,60.75 C1251.02,59.10 1248.65,59.00 1206.65,59.00 L 1162.23 59.00 L 1151.95 77.25 C1139.31,99.68 1127.07,121.21 1121.71,130.46 C1119.48,134.28 1117.67,137.90 1117.67,138.49 C1117.67,140.23 1161.00,216.38 1162.77,217.75 ZM 1264.00 517.89 C1264.00,518.68 1276.37,519.00 1307.43,519.00 L 1350.86 519.00 L 1352.79 516.25 C1353.85,514.74 1364.27,496.72 1375.95,476.21 L 1397.18 438.91 L 1374.94 399.91 C1362.71,378.46 1351.89,360.47 1350.89,359.94 C1349.79,359.35 1332.33,359.08 1306.05,359.24 L 1263.01 359.50 L 1271.82 375.00 C1276.67,383.52 1286.56,400.96 1293.81,413.74 C1301.07,426.52 1307.00,437.87 1307.00,438.96 C1307.00,440.05 1299.27,454.57 1289.83,471.22 C1280.38,487.88 1270.71,504.94 1268.33,509.14 C1265.95,513.35 1264.00,517.29 1264.00,517.89 ZM 618.70 417.75 L 621.10 421.00 L 664.55 421.00 C695.52,421.00 708.00,420.68 708.00,419.90 C708.00,419.29 698.33,401.83 686.50,381.09 C674.62,360.26 665.00,342.29 665.00,340.94 C665.00,339.60 673.60,323.42 684.09,305.00 C694.59,286.58 704.56,269.07 706.25,266.11 L 709.31 260.71 L 664.91 261.39 C632.11,261.90 620.22,262.39 619.42,263.29 C618.83,263.95 608.56,281.73 596.59,302.78 L 574.82 341.06 L 580.57 351.28 C604.78,394.29 616.64,414.96 618.70,417.75 ZM 450.65 518.25 C450.92,518.67 470.79,518.90 494.82,518.76 L 538.50 518.50 L 560.74 479.50 C572.97,458.05 582.97,439.83 582.96,439.00 C582.95,437.81 551.79,382.12 540.57,363.25 L 538.05 359.00 L 494.02 359.00 C469.81,359.00 450.00,359.21 450.00,359.46 C450.00,359.71 454.78,368.37 460.62,378.71 C466.45,389.04 476.35,406.57 482.62,417.66 C488.88,428.75 494.00,438.45 494.00,439.20 C494.00,439.96 484.14,457.88 472.09,479.03 C460.04,500.17 450.39,517.82 450.65,518.25 ZM 179.00 720.51 C179.00,720.78 198.91,721.00 223.25,721.00 L 267.50 721.00 L 289.75 681.62 C301.99,659.96 312.00,641.89 312.00,641.46 C312.00,641.03 302.08,623.04 289.95,601.48 L 267.90 562.28 L 251.70 561.58 C234.33,560.84 179.00,560.99 179.00,561.78 C179.00,562.04 182.99,569.29 187.88,577.88 C204.11,606.45 219.92,634.77 221.61,638.31 C221.96,639.04 222.34,639.47 222.55,639.96 C223.42,641.96 221.62,645.12 204.62,674.97 C202.45,678.78 200.03,683.03 197.34,687.76 C187.25,705.51 179.00,720.25 179.00,720.51 ZM 890.78 419.25 C892.19,420.87 895.61,421.00 935.49,421.00 C959.24,421.00 978.91,420.76 979.20,420.47 C979.49,420.18 969.90,402.74 957.89,381.72 C945.87,360.70 936.04,342.40 936.02,341.05 C936.01,339.67 945.43,322.04 957.66,300.55 C969.57,279.62 979.52,262.12 979.78,261.65 C980.03,261.19 960.33,260.96 936.00,261.15 C893.13,261.49 891.72,261.56 890.31,263.50 C887.34,267.59 847.94,337.59 847.36,339.81 C846.96,341.34 847.70,343.88 849.55,347.31 C857.04,361.17 889.44,417.71 890.78,419.25 ZM 348.66 419.17 C350.21,420.89 352.94,421.00 393.65,421.00 C418.92,421.00 437.00,420.62 437.00,420.09 C437.00,419.59 428.21,403.79 417.46,384.98 C406.71,366.17 396.80,348.57 395.44,345.88 L 392.96 340.99 L 395.11 336.75 C397.30,332.42 432.53,270.26 436.25,264.15 L 438.29 260.79 L 394.18 261.15 C356.61,261.45 349.86,261.72 348.62,263.00 C347.39,264.27 309.96,329.38 305.47,338.06 C304.06,340.78 304.12,341.31 306.37,345.74 C310.85,354.58 346.99,417.33 348.66,419.17 ZM 179.40 517.40 C178.83,518.88 182.54,519.00 223.02,518.76 L 267.26 518.50 L 289.60 479.50 C301.89,458.05 311.95,439.94 311.97,439.25 C312.00,438.00 305.88,427.00 280.40,382.50 L 267.23 359.50 L 223.11 359.24 C198.85,359.10 179.00,359.24 179.00,359.55 C179.00,360.07 183.83,368.72 210.28,415.50 C214.63,423.20 219.28,431.64 220.61,434.25 L 223.03 439.00 L 220.38 444.25 C218.92,447.14 209.24,464.41 198.87,482.64 C188.51,500.86 179.74,516.50 179.40,517.40 ZM 1161.81 419.25 C1163.20,420.87 1166.61,421.00 1206.49,421.00 C1230.24,421.00 1249.92,420.75 1250.22,420.44 C1250.53,420.14 1245.06,409.90 1238.08,397.69 C1211.51,351.26 1207.00,343.00 1207.00,340.77 C1207.00,339.50 1216.90,321.20 1229.00,300.09 C1241.10,278.98 1251.00,261.53 1251.00,261.31 C1251.00,261.09 1231.15,261.04 1206.88,261.20 C1164.09,261.49 1162.72,261.56 1161.32,263.50 C1160.53,264.60 1152.88,277.88 1144.33,293.00 C1142.10,296.94 1140.06,300.55 1138.18,303.87 C1119.01,337.75 1117.58,340.28 1118.24,342.01 C1118.36,342.32 1118.54,342.60 1118.70,343.03 C1120.06,346.61 1159.84,416.96 1161.81,419.25 ZM 450.00 720.66 C450.00,720.85 469.97,721.00 494.39,721.00 L 538.77 721.00 L 545.59 708.75 C549.34,702.01 559.32,684.36 567.76,669.52 C577.03,653.24 582.93,641.84 582.65,640.76 C582.26,639.26 555.48,590.90 542.78,568.75 L 538.91 562.00 L 529.71 561.78 C520.27,561.55 450.00,561.41 450.00,561.61 C450.00,561.68 453.52,567.98 457.83,575.61 C475.88,607.62 490.94,634.73 492.52,638.08 C492.88,638.86 493.25,639.36 493.46,639.92 C494.33,642.29 492.39,645.70 475.80,674.89 C474.07,677.94 472.17,681.27 470.11,684.91 C459.05,704.39 450.00,720.48 450.00,720.66 ZM 618.69 619.75 L 621.10 623.00 L 663.99 623.00 C690.53,623.00 707.11,622.63 707.48,622.03 C708.05,621.11 704.53,614.59 686.97,584.00 C670.89,556.00 665.00,545.16 665.00,543.55 C665.00,541.33 665.33,540.72 688.71,499.64 C699.93,479.92 708.98,463.72 708.81,463.64 C708.64,463.56 688.62,463.62 664.31,463.77 L 620.13 464.04 L 599.20 500.77 C597.66,503.47 596.22,506.00 594.87,508.38 C576.51,540.59 575.04,543.17 575.76,544.74 C575.88,544.99 576.05,545.21 576.22,545.53 C581.52,555.54 616.83,617.25 618.69,619.75 ZM 722.72 717.75 L 720.80 721.00 L 809.74 721.00 L 831.87 682.09 C844.04,660.69 854.00,642.49 854.00,641.64 C854.00,640.78 849.10,631.41 843.11,620.79 C837.12,610.18 827.27,592.72 821.21,582.00 L 810.21 562.50 L 793.86 561.78 C784.86,561.38 764.83,561.33 749.36,561.66 L 721.21 562.27 L 724.25 567.38 C725.93,570.20 731.20,579.47 735.97,588.00 C740.75,596.53 749.23,611.64 754.83,621.60 C760.42,631.55 765.00,640.48 765.00,641.43 C765.00,642.76 735.29,696.38 722.72,717.75 ZM 889.66 619.75 L 892.10 623.00 L 980.19 623.00 L 977.73 618.75 C958.52,585.54 936.00,544.84 936.00,543.32 C936.00,541.81 965.94,487.89 977.96,467.75 L 980.20 464.00 L 891.25 464.00 L 881.75 480.75 C876.53,489.96 866.57,507.52 859.63,519.76 C852.68,532.00 847.00,542.75 847.00,543.65 C847.00,544.55 854.05,557.71 862.66,572.89 C871.28,588.08 880.33,604.10 882.77,608.50 C885.21,612.90 888.31,617.96 889.66,619.75 ZM 1264.00 314.98 C1264.00,315.66 1278.66,316.00 1307.75,315.99 L 1351.50 315.98 L 1353.95 311.74 C1390.23,248.92 1396.89,236.66 1395.84,234.61 C1395.24,233.45 1385.10,215.51 1373.30,194.75 L 1351.84 157.00 L 1262.85 157.00 L 1265.82 162.25 C1267.45,165.14 1277.38,182.63 1287.89,201.13 C1298.40,219.63 1307.00,235.55 1307.00,236.51 C1307.00,237.47 1305.70,240.56 1304.11,243.38 C1302.52,246.20 1292.84,263.23 1282.61,281.23 C1272.37,299.23 1264.00,314.42 1264.00,314.98 ZM 993.24 718.75 L 991.77 721.00 L 1080.79 721.00 L 1094.55 696.75 C1102.12,683.41 1112.14,665.79 1116.82,657.59 C1121.50,649.39 1125.32,642.19 1125.31,641.59 C1125.30,640.49 1084.26,567.08 1081.76,563.68 C1080.50,561.97 1077.73,561.84 1037.13,561.66 C1013.32,561.55 993.61,561.82 993.34,562.26 C993.06,562.71 1000.91,577.34 1010.77,594.78 C1035.53,638.60 1036.00,639.47 1036.00,641.48 C1036.00,642.46 1032.78,648.94 1028.85,655.88 C1024.92,662.82 1015.63,679.30 1008.21,692.50 C1000.79,705.70 994.05,717.51 993.24,718.75 ZM 75.66 619.25 L 78.03 623.00 L 121.45 623.00 C145.34,623.00 165.10,622.65 165.36,622.22 C165.83,621.46 159.76,610.28 144.06,583.00 C126.50,552.49 122.75,545.53 122.75,543.44 C122.75,542.23 132.48,524.07 144.38,503.08 C156.27,482.09 166.00,464.71 166.00,464.45 C166.00,464.19 146.09,464.10 121.75,464.24 L 77.50 464.50 L 58.00 498.68 C47.28,517.47 37.18,535.30 35.56,538.29 L 32.63 543.73 L 44.51 564.61 C51.05,576.10 60.20,592.25 64.85,600.50 C69.49,608.75 74.36,617.19 75.66,619.25 ZM 993.00 315.00 C993.00,315.65 1008.14,316.00 1036.43,316.00 L 1079.86 316.00 L 1081.78 313.25 C1082.84,311.74 1088.56,301.95 1094.49,291.50 C1100.42,281.05 1109.72,264.76 1115.14,255.31 C1120.56,245.86 1125.00,237.36 1125.00,236.44 C1125.00,235.51 1121.24,228.17 1116.64,220.13 C1112.04,212.08 1105.24,200.10 1101.52,193.50 C1097.80,186.90 1091.60,175.99 1087.75,169.25 L 1080.76 157.00 L 991.93 157.00 L 993.10 159.25 C993.75,160.49 997.51,167.12 1001.47,174.00 C1022.70,210.87 1036.00,234.96 1036.00,236.51 C1036.00,237.47 1033.80,242.14 1031.11,246.88 C999.14,303.17 993.00,314.14 993.00,315.00 ZM 722.00 314.93 C722.00,315.67 735.20,316.00 765.49,316.00 L 808.97 316.00 L 811.33 312.25 C818.15,301.39 854.00,237.73 854.00,236.49 C854.00,235.21 845.48,219.83 817.29,170.25 L 809.75 157.00 L 720.93 157.00 L 722.13 159.25 C722.78,160.49 732.70,178.01 744.16,198.20 C755.62,218.38 765.00,235.71 765.00,236.70 C764.99,237.69 764.17,239.85 763.17,241.50 C756.87,251.85 722.00,314.05 722.00,314.93 ZM 343.68 613.75 L 349.07 623.00 L 392.47 623.00 C416.35,623.00 436.11,622.64 436.38,622.20 C436.65,621.75 431.90,612.64 425.82,601.95 C399.65,555.89 393.15,543.78 393.72,542.16 C394.34,540.44 413.83,505.78 429.12,479.24 L 437.91 463.98 L 393.31 464.24 L 348.72 464.50 L 328.80 499.48 C317.84,518.71 307.74,536.54 306.36,539.08 L 303.84 543.71 L 321.07 574.10 C330.54,590.82 340.72,608.66 343.68,613.75 ZM 1160.40 619.25 L 1162.98 623.00 L 1251.07 623.00 L 1249.88 620.75 C1249.22,619.51 1241.50,605.90 1232.71,590.50 C1209.70,550.17 1207.00,545.20 1207.00,543.22 C1207.00,542.24 1209.41,537.18 1212.36,531.97 C1234.07,493.64 1247.50,470.02 1249.19,467.25 L 1251.16 464.00 L 1162.42 464.00 L 1140.46 502.68 C1128.38,523.95 1118.36,542.17 1118.18,543.16 C1117.90,544.80 1154.23,610.29 1160.40,619.25 ZM 179.00 315.54 C179.00,315.81 198.88,315.90 223.18,315.76 L 267.37 315.50 L 284.17 286.00 C293.42,269.77 303.48,252.23 306.53,247.00 C309.58,241.77 311.89,236.76 311.66,235.86 C311.43,234.96 303.62,220.79 294.29,204.36 C284.97,187.94 275.13,170.57 272.42,165.76 L 267.50 157.01 L 223.25 157.01 C198.91,157.00 179.00,157.23 179.00,157.51 C179.00,157.79 183.20,165.33 188.32,174.26 C218.16,226.23 223.32,236.00 222.22,238.43 C221.63,239.71 211.67,257.48 200.08,277.91 C188.48,298.35 179.00,315.28 179.00,315.54 ZM 450.00 315.21 C450.00,315.66 469.90,315.90 494.22,315.76 L 538.45 315.50 L 560.72 276.61 C572.98,255.22 583.00,237.21 583.00,236.59 C583.00,235.51 579.38,229.00 551.16,179.25 L 538.53 157.00 L 494.27 157.00 C469.92,157.00 450.00,157.36 450.00,157.80 C450.00,158.24 450.39,159.03 450.87,159.55 C451.93,160.70 491.32,230.41 493.00,234.10 C494.01,236.31 493.85,237.38 491.95,241.10 C488.53,247.81 451.88,312.37 450.88,313.45 C450.40,313.97 450.00,314.76 450.00,315.21 ZM 858.85 0.00 C848.97,0.00 841.07,0.34 841.30,0.75 C852.69,21.04 859.00,33.07 859.00,34.50 C859.00,37.37 815.00,114.60 811.85,117.25 C809.94,118.86 806.14,119.00 763.96,119.00 C722.96,119.00 717.97,118.83 716.51,117.37 C715.62,116.48 715.15,115.06 715.46,114.23 C715.78,113.40 726.00,95.12 738.16,73.61 L 760.28 34.50 L 757.07 28.50 C755.31,25.20 751.07,17.55 747.66,11.50 L 741.45 0.50 L 723.73 0.23 C713.98,0.08 706.00,0.15 706.00,0.39 C706.00,0.63 707.83,4.00 710.07,7.89 C712.42,11.97 714.01,15.91 713.82,17.23 L 713.50 19.50 L 666.09 19.76 C622.41,20.00 618.53,19.88 616.78,18.30 C615.73,17.35 612.84,12.85 610.36,8.29 L 605.84 0.00 L 858.85 0.00 ZM 1111.81 0.00 L 1114.27 4.25 C1122.69,18.80 1130.00,32.89 1130.00,34.57 C1130.00,35.65 1125.92,43.72 1120.93,52.52 C1092.00,103.49 1084.49,116.25 1082.62,117.55 C1079.44,119.78 991.45,119.70 988.26,117.47 C986.54,116.26 986.26,115.46 986.93,113.68 C987.40,112.44 994.42,99.74 1002.51,85.46 C1028.37,39.86 1031.12,34.84 1030.81,33.64 C1030.64,33.00 1026.45,25.18 1021.50,16.26 L 1012.50 0.06 L 994.75 0.03 C984.99,0.01 977.00,0.19 977.00,0.41 C977.00,0.64 978.83,4.00 981.07,7.89 C983.42,11.97 985.01,15.91 984.82,17.23 L 984.50 19.50 L 936.81 19.76 L 889.12 20.02 L 886.69 16.76 C885.36,14.97 882.60,10.46 880.55,6.75 L 876.83 0.00 L 1111.81 0.00 ZM 587.84 0.00 C577.93,0.00 569.98,0.36 570.17,0.79 C570.35,1.23 574.48,8.69 579.34,17.38 C585.59,28.55 588.01,33.80 587.62,35.34 C586.69,38.95 543.04,115.37 540.83,117.25 C538.94,118.86 535.22,119.00 494.14,118.99 C469.59,118.98 448.52,118.71 447.32,118.39 C446.12,118.07 444.87,117.11 444.54,116.26 C444.49,116.12 444.44,116.00 444.41,115.87 C443.93,114.27 445.11,112.17 462.62,81.17 L 463.00 80.50 C471.39,65.65 480.71,49.12 483.71,43.76 L 489.17 34.02 L 479.53 17.01 L 469.90 0.00 L 587.84 0.00 ZM 316.76 0.00 C306.99,0.00 299.00,0.26 299.00,0.57 C299.00,0.88 302.88,8.12 307.62,16.64 C312.37,25.16 316.25,33.18 316.25,34.46 C316.25,35.74 313.34,41.89 309.78,48.14 C306.22,54.39 297.10,70.53 289.51,84.00 C271.85,115.35 270.38,117.66 267.71,118.38 C266.50,118.71 245.39,118.98 220.82,118.99 C181.53,119.00 175.95,118.81 174.57,117.43 C173.71,116.56 173.00,115.41 173.00,114.87 C173.00,113.80 178.08,104.62 202.34,61.83 L 218.03 34.17 L 216.15 30.83 C215.12,29.00 210.79,21.31 206.54,13.75 L 198.81 0.00 L 316.76 0.00 ZM 450.00 113.56 C450.00,113.81 469.88,113.90 494.19,113.76 L 538.37 113.50 L 545.01 102.00 C550.39,92.69 572.29,54.07 581.33,37.93 L 583.33 34.37 L 573.92 17.21 L 564.50 0.05 L 520.25 0.03 C495.91,0.01 476.00,0.23 476.00,0.52 C476.00,0.81 480.05,8.32 485.00,17.22 C489.95,26.12 493.99,33.87 493.99,34.45 C493.98,35.03 492.81,37.53 491.39,40.00 C481.60,57.01 450.00,113.18 450.00,113.56 ZM 993.00 112.93 C993.00,113.70 1005.72,113.95 1036.74,113.76 L 1080.48 113.50 L 1086.10 104.00 C1099.86,80.70 1125.00,35.65 1125.00,34.28 C1125.00,33.46 1122.14,27.77 1118.65,21.64 C1115.16,15.51 1111.00,8.14 1109.40,5.25 L 1106.50 0.00 L 1062.25 0.00 C1037.91,0.00 1018.00,0.16 1018.00,0.36 C1018.00,0.56 1022.04,7.87 1026.99,16.61 C1031.93,25.35 1035.98,33.31 1035.99,34.31 C1035.99,35.30 1033.59,40.25 1030.66,45.31 C1017.59,67.77 993.00,111.94 993.00,112.93 ZM 721.16 113.20 C720.98,113.65 740.76,113.90 765.12,113.76 L 809.41 113.50 L 815.52 103.00 C834.86,69.81 853.46,36.26 853.48,34.51 C853.49,33.41 849.45,25.19 844.50,16.27 L 835.50 0.03 L 791.25 0.02 C766.91,0.01 747.00,0.16 747.00,0.35 C747.00,0.54 751.12,8.05 756.15,17.04 C764.30,31.62 765.18,33.68 764.28,36.07 C763.72,37.54 753.87,55.31 742.38,75.56 C730.90,95.81 721.35,112.75 721.16,113.20 ZM 179.44 112.26 C178.81,113.93 181.14,114.01 223.02,113.76 L 267.27 113.50 L 278.68 93.50 C284.96,82.50 295.05,64.65 301.10,53.83 L 312.11 34.16 L 302.63 17.33 L 293.15 0.50 L 249.07 0.24 C224.83,0.10 205.00,0.29 205.00,0.66 C205.00,1.04 208.88,8.28 213.62,16.75 C218.37,25.22 222.24,33.13 222.24,34.33 C222.23,35.52 218.51,43.03 213.97,51.00 C209.43,58.97 199.96,75.62 192.91,88.00 C185.87,100.38 179.81,111.29 179.44,112.26 ZM 1395.00 734.57 C1395.00,734.81 1401.97,735.00 1410.50,735.00 L 950.70 735.00 L 1032.64 734.76 L 1118.33 734.50 L 1132.48 709.50 C1154.03,671.42 1156.76,666.68 1158.49,664.25 L 1160.09 662.00 L 1207.94 662.00 C1251.19,662.00 1255.85,662.16 1256.41,663.63 C1256.81,664.66 1252.88,672.58 1245.63,685.38 C1224.27,723.10 1218.00,734.27 1218.00,734.64 C1218.00,734.84 1256.59,734.98 1303.75,734.96 L 1389.50 734.93 L 1394.89 725.21 C1397.85,719.87 1406.06,705.34 1413.14,692.93 L 1426.00 670.36 L 1426.00 735.00 L 1425.98 707.25 L 1425.97 679.50 L 1422.33 686.00 C1420.33,689.58 1413.36,701.87 1406.84,713.32 C1400.33,724.77 1395.00,734.34 1395.00,734.57 ZM 846.73 735.00 L 866.50 700.25 C877.38,681.14 886.96,664.71 887.79,663.75 C889.20,662.13 892.83,662.00 937.05,662.00 C980.02,662.00 984.85,662.16 985.40,663.61 C985.79,664.60 983.28,670.06 978.85,677.86 C959.68,711.66 950.79,727.50 948.96,731.08 L 946.96 735.00 L 846.73 735.00 ZM 1124.27 733.75 C1123.89,734.74 1132.98,735.00 1168.14,734.99 L 1212.50 734.97 L 1221.25 719.24 C1229.28,704.78 1239.77,686.11 1247.93,671.75 L 1251.19 666.00 L 1163.09 666.00 L 1161.48 668.25 C1159.70,670.74 1125.03,731.75 1124.27,733.75 ZM 853.30 733.66 C852.88,734.77 860.47,735.00 897.14,734.97 L 941.50 734.94 L 947.92 723.22 C951.45,716.77 959.95,701.60 966.81,689.50 C973.66,677.40 979.46,667.16 979.70,666.75 C979.93,666.34 960.18,666.00 935.81,666.01 L 891.50 666.01 L 889.63 669.26 C880.44,685.21 853.70,732.61 853.30,733.66 ZM 0.00 338.52 C0.00,349.69 0.35,358.98 0.78,359.17 C1.88,359.64 44.47,434.75 45.53,438.10 C45.99,439.54 39.82,451.19 23.08,480.47 L 0.00 520.85 L 0.00 338.52 ZM 22.99 682.86 C0.14,722.97 0.00,723.24 0.00,729.13 L 0.00 559.83 L 6.34 570.67 C18.07,590.73 44.76,638.48 45.37,640.51 C45.81,641.96 39.62,653.68 22.99,682.86 ZM 0.00 154.68 L 8.84 170.09 C36.46,218.25 45.00,233.94 45.00,236.52 C45.00,238.30 36.97,253.39 22.50,278.75 L 0.00 318.21 L 0.00 154.68 ZM 1426.00 416.90 L 1412.11 392.70 C1391.34,356.53 1384.00,342.99 1384.00,340.86 C1384.00,339.80 1393.45,322.39 1405.00,302.16 L 1426.00 265.39 L 1426.00 416.90 ZM 1426.00 214.06 L 1421.71 206.78 C1407.85,183.29 1384.00,140.06 1384.00,138.44 C1384.00,137.38 1387.10,131.12 1390.88,124.51 C1394.67,117.90 1404.12,101.34 1411.88,87.69 L 1426.00 62.88 L 1426.00 214.06 ZM 1426.00 619.04 L 1416.90 603.27 C1396.24,567.44 1384.00,545.20 1384.00,543.47 C1384.00,542.46 1393.45,525.06 1405.00,504.81 L 1426.00 467.99 L 1426.00 619.04 ZM 0.92 368.55 C0.36,367.97 0.00,395.58 0.00,439.00 C0.00,478.79 0.38,509.98 0.86,509.45 C1.75,508.46 36.44,447.94 39.37,442.25 C40.94,439.21 40.94,438.79 39.38,435.75 C36.11,429.40 1.82,369.48 0.92,368.55 ZM 0.02 641.55 C0.03,711.72 0.08,713.43 1.86,710.50 C2.87,708.85 12.09,692.74 22.35,674.70 L 41.00 641.89 L 39.37 638.70 C36.44,632.92 1.74,571.52 0.86,570.55 C0.38,570.02 0.01,601.42 0.02,641.55 ZM 0.03 237.25 C0.05,291.48 0.34,308.02 1.21,306.50 C1.84,305.40 11.11,289.20 21.80,270.50 L 41.23 236.50 L 38.67 232.00 C37.25,229.52 28.31,213.68 18.80,196.80 C9.28,179.91 1.16,166.07 0.75,166.05 C0.34,166.02 0.01,198.06 0.03,237.25 ZM 1419.07 597.75 C1422.60,603.93 1425.61,609.00 1425.75,609.00 C1425.89,609.00 1426.00,579.41 1426.00,543.25 L 1425.99 477.50 L 1415.39 496.00 C1398.32,525.80 1389.00,542.66 1389.00,543.73 C1389.00,544.63 1400.50,565.29 1419.07,597.75 ZM 1407.67 375.46 L 1425.50 406.79 L 1425.76 374.47 C1425.91,356.69 1425.91,327.19 1425.76,308.90 L 1425.50 275.66 L 1407.14 307.86 C1394.40,330.22 1388.95,340.68 1389.31,342.09 C1389.61,343.21 1397.87,358.22 1407.67,375.46 ZM 1407.18 171.92 L 1425.50 204.22 L 1425.76 171.68 C1425.91,153.79 1425.91,124.25 1425.76,106.04 L 1425.50 72.93 L 1407.63 104.56 C1397.80,121.96 1389.56,136.96 1389.32,137.90 C1389.06,138.89 1396.60,153.25 1407.18,171.92 ZM 1354.25 724.75 C1353.00,725.71 1341.85,726.00 1306.46,726.00 C1303.65,726.00 1300.99,726.00 1298.47,726.00 C1267.71,726.02 1258.69,726.02 1257.67,723.18 C1257.25,721.99 1258.21,720.32 1259.57,717.95 C1259.84,717.49 1260.12,716.99 1260.41,716.47 C1265.90,706.62 1275.94,688.80 1289.34,665.16 C1296.30,652.88 1302.00,642.18 1302.00,641.38 C1302.00,640.58 1299.14,634.88 1295.64,628.72 C1292.14,622.55 1285.11,610.08 1280.02,601.00 C1274.92,591.92 1267.85,579.41 1264.32,573.18 C1260.54,566.53 1258.01,560.96 1258.19,559.68 L 1258.50 557.50 L 1354.50 557.50 L 1357.32 562.00 C1358.87,564.47 1369.33,582.83 1380.57,602.78 C1393.81,626.29 1400.98,640.02 1400.94,641.78 C1400.87,645.19 1384.77,673.50 1382.90,673.50 C1379.81,673.50 1381.25,669.28 1388.96,655.83 L 1397.07 641.67 L 1391.66 632.08 C1360.35,576.63 1354.28,565.95 1352.88,563.89 L 1351.26 561.50 L 1308.53 561.50 C1285.03,561.50 1265.35,561.78 1264.79,562.13 C1263.92,562.67 1273.33,580.00 1301.64,629.97 C1304.59,635.18 1307.00,640.35 1307.00,641.47 C1307.00,642.59 1301.78,652.73 1295.40,664.00 C1289.02,675.28 1279.60,691.92 1274.46,701.00 C1269.32,710.08 1264.81,718.29 1264.45,719.25 C1263.82,720.90 1266.29,721.00 1307.77,721.00 L 1351.76 721.00 L 1359.03 708.38 C1365.96,696.36 1366.36,695.87 1367.56,698.11 C1367.87,698.69 1368.12,699.12 1368.24,699.59 C1368.66,701.21 1367.50,703.25 1361.68,713.38 L 1361.04 714.50 C1358.20,719.45 1355.14,724.06 1354.25,724.75 ZM 1264.00 112.92 C1264.00,113.68 1277.13,114.00 1307.81,114.00 L 1351.61 114.00 L 1373.97 74.84 C1386.27,53.31 1396.33,35.16 1396.33,34.52 C1396.33,33.88 1392.15,25.85 1387.04,16.68 L 1377.74 0.00 L 1426.00 0.00 L 1426.00 12.39 L 1422.78 6.26 L 1419.50 0.02 L 1382.77 0.00 L 1384.26 2.28 C1389.29,9.95 1401.00,32.46 1401.00,34.45 C1401.00,35.75 1399.25,39.90 1397.10,43.66 C1394.96,47.42 1385.04,64.90 1375.06,82.50 C1365.08,100.10 1355.79,115.51 1354.40,116.75 L 1351.89 119.00 L 1306.88 119.00 C1277.76,119.00 1261.19,118.63 1259.93,117.96 C1258.87,117.40 1258.00,116.01 1258.00,114.88 C1258.00,113.75 1263.56,103.08 1270.35,91.16 C1297.14,44.16 1302.15,35.01 1301.83,33.62 C1301.65,32.82 1297.45,24.95 1292.50,16.13 L 1283.50 0.08 L 1265.67 0.04 C1255.86,0.02 1247.98,0.34 1248.17,0.75 C1248.35,1.16 1250.22,4.53 1252.32,8.23 C1254.49,12.03 1256.01,15.94 1255.82,17.23 L 1255.50 19.50 L 1208.11 19.76 C1176.21,19.93 1160.32,19.68 1159.47,18.97 C1158.77,18.40 1155.88,13.89 1153.03,8.96 L 1147.86 0.00 L 1153.09 0.00 L 1156.73 6.25 C1158.73,9.69 1161.03,13.29 1161.84,14.25 C1163.20,15.87 1166.60,16.00 1206.60,16.00 C1230.40,16.00 1250.10,15.65 1250.36,15.22 C1250.63,14.79 1248.99,11.19 1246.72,7.22 L 1242.59 0.00 L 1288.86 0.00 L 1292.87 7.25 C1295.08,11.24 1299.16,18.55 1301.94,23.50 C1304.72,28.45 1307.00,33.31 1307.00,34.31 C1307.00,35.30 1297.32,53.15 1285.50,73.98 C1273.68,94.80 1264.00,112.33 1264.00,112.92 ZM 890.80 14.25 C892.19,15.87 895.61,16.00 935.60,16.00 C959.40,16.00 979.08,15.66 979.33,15.25 C979.57,14.84 977.91,11.25 975.64,7.28 L 971.50 0.07 L 926.78 0.03 L 882.06 0.00 L 885.67 6.25 C887.66,9.69 889.97,13.29 890.80,14.25 ZM 619.82 14.25 C621.20,15.87 624.58,16.00 664.10,16.00 C691.53,16.00 707.10,15.64 707.50,15.00 C707.84,14.45 706.40,10.85 704.31,7.01 L 700.50 0.01 L 655.64 0.01 L 610.77 0.00 L 612.20 2.25 C612.98,3.49 614.68,6.30 615.98,8.50 C617.27,10.70 619.00,13.29 619.82,14.25 ZM 582.21 732.76 L 580.77 735.00 L 575.58 735.00 L 579.19 728.75 C581.17,725.31 590.34,709.22 599.56,693.00 C608.78,676.78 616.81,663.17 617.41,662.77 C619.29,661.50 712.44,661.84 713.72,663.12 C714.34,663.74 714.57,664.98 714.23,665.87 C713.63,667.50 682.12,723.47 678.12,730.04 C676.96,731.94 676.01,733.84 676.00,734.25 C676.00,734.66 714.41,735.00 761.36,735.00 L 584.33 735.00 L 625.56 734.76 L 670.37 734.50 L 673.52 729.00 C676.06,724.57 690.49,699.08 706.77,670.25 L 709.17 666.00 L 620.29 666.00 L 601.98 698.25 C591.90,715.99 583.01,731.52 582.21,732.76 ZM 40.88 731.25 L 38.96 735.00 L 2.95 735.00 L 33.42 734.50 L 74.61 662.50 L 123.04 662.50 C168.90,662.50 171.49,662.60 171.82,664.30 C172.09,665.70 141.30,721.74 134.22,732.75 L 132.77 735.00 L 127.80 735.00 L 136.62 719.25 C141.47,710.59 150.24,695.17 156.10,685.00 L 166.77 666.50 L 122.69 666.24 C98.45,666.10 78.28,666.32 77.86,666.74 C77.02,667.58 43.97,725.24 40.88,731.25 ZM 311.78 731.75 L 309.84 735.00 L 304.54 735.00 L 324.52 699.86 C335.51,680.53 345.10,664.10 345.83,663.35 C346.93,662.22 355.53,662.03 394.83,662.24 C441.64,662.50 442.50,662.54 442.78,664.50 C442.93,665.60 438.72,674.15 433.42,683.50 C428.12,692.85 419.56,707.96 414.39,717.08 C409.23,726.20 405.00,733.96 405.00,734.33 C405.00,734.70 443.38,735.00 490.29,735.00 L 398.85 735.00 L 405.81 722.75 C409.64,716.01 417.59,701.95 423.50,691.50 C429.40,681.05 435.11,671.04 436.20,669.25 L 438.16 666.00 L 349.26 666.00 L 331.49 697.25 C321.71,714.44 312.84,729.96 311.78,731.75 ZM 0.00 0.00 L 0.01 106.50 L 5.89 96.00 C9.13,90.22 18.31,74.03 26.29,60.01 C38.42,38.73 40.65,34.19 39.81,32.51 C39.25,31.41 34.93,23.64 30.21,15.25 L 21.61 0.00 L 27.20 0.00 L 36.09 16.00 C40.99,24.82 45.00,33.18 45.00,34.58 C45.00,36.00 40.21,45.39 34.16,55.81 C28.20,66.09 18.08,83.83 11.66,95.23 L 0.00 115.96 ZM 348.40 14.16 C349.89,15.89 352.43,16.00 392.93,16.00 C419.32,16.00 436.11,15.63 436.48,15.04 C436.80,14.51 435.34,11.02 433.24,7.29 L 429.40 0.50 L 384.64 0.24 L 343.43 0.00 L 452.37 0.00 C442.23,0.00 434.97,0.38 435.17,0.91 C435.35,1.41 437.27,5.15 439.43,9.22 C441.84,13.76 443.11,17.27 442.71,18.31 C442.11,19.86 438.25,20.00 394.57,20.00 C389.30,20.00 384.61,20.01 380.41,20.02 C354.48,20.10 347.60,20.12 344.04,16.69 C342.18,14.90 341.23,12.16 338.93,7.99 L 334.53 0.00 L 339.88 -0.00 L 343.35 6.15 C345.26,9.54 347.53,13.14 348.40,14.16 ZM 76.25 13.25 L 78.14 16.00 L 121.51 16.00 C146.42,16.00 165.12,15.61 165.44,15.09 C165.75,14.59 164.16,10.99 161.92,7.09 L 157.83 0.00 L 163.15 0.00 L 167.66 7.96 C170.14,12.33 172.01,16.72 171.82,17.71 C171.49,19.40 168.72,19.51 123.37,19.76 C80.07,19.99 75.13,19.86 73.92,18.40 C73.18,17.51 70.53,13.12 68.03,8.64 L 63.49 0.50 L 30.14 0.00 L 113.41 0.00 C88.99,0.00 69.00,0.26 69.00,0.57 C69.00,1.30 73.77,9.64 76.25,13.25 Z" fill="rgb(6,6,6)"/>
<path d="M 1367.35 703.20 C1368.27,701.29 1368.45,700.39 1368.24,699.59 C1368.12,699.12 1367.87,698.69 1367.56,698.11 C1366.36,695.87 1365.96,696.36 1359.03,708.38 L 1351.76 721.00 L 1351.74 721.00 L 1358.41 709.25 C1362.08,702.79 1365.52,696.83 1366.04,696.00 C1366.56,695.17 1368.32,692.25 1369.94,689.50 C1370.39,688.74 1370.81,688.02 1371.21,687.33 C1376.52,678.33 1377.75,676.25 1378.62,676.39 C1378.96,676.44 1379.24,676.81 1379.67,677.24 C1381.05,678.63 1380.56,679.91 1374.74,690.14 C1372.67,693.78 1369.92,698.64 1367.35,703.20 ZM 1352.70 725.18 C1349.09,725.92 1339.15,726.00 1306.66,726.00 C1335.94,726.00 1348.56,725.80 1352.70,725.18 ZM 1354.76 724.24 C1354.73,724.27 1354.70,724.30 1354.67,724.33 C1355.11,723.82 1355.73,722.97 1356.47,721.89 C1355.69,723.08 1355.08,723.92 1354.76,724.24 ZM 1306.46 726.00 C1301.87,726.00 1297.68,726.00 1293.86,726.01 C1295.34,726.00 1296.88,726.00 1298.47,726.00 C1300.99,726.00 1303.65,726.00 1306.46,726.00 Z" fill="rgb(88,88,88)"/>
<path d="M 1377.38 685.45 C1380.68,679.45 1380.81,678.38 1379.67,677.24 C1379.24,676.81 1378.96,676.44 1378.62,676.39 C1377.79,676.26 1376.65,678.12 1372.01,685.99 C1372.85,684.45 1373.70,682.82 1374.49,681.25 C1377.05,676.16 1379.56,672.00 1380.07,672.00 C1380.58,672.00 1381.00,671.49 1381.00,670.86 C1381.00,670.28 1384.09,664.40 1388.06,657.41 C1381.14,669.61 1379.93,673.50 1382.90,673.50 C1383.55,673.50 1385.95,670.03 1388.80,665.37 C1384.55,672.81 1380.82,679.38 1377.38,685.45 ZM 1354.25 724.75 C1354.26,724.74 1354.27,724.73 1354.28,724.72 L 1353.15 726.00 L 1306.73 726.00 C1339.17,726.00 1349.09,725.92 1352.70,725.18 C1353.54,725.05 1354.04,724.91 1354.25,724.75 ZM 1380.28 602.27 C1369.15,582.52 1358.85,564.45 1357.32,562.00 C1361.57,568.79 1371.17,585.75 1380.28,602.27 ZM 1367.59 693.45 C1366.88,694.64 1366.30,695.58 1366.04,696.00 C1365.84,696.32 1365.20,697.41 1364.28,699.00 C1364.74,698.12 1365.00,697.58 1365.00,697.48 C1365.00,697.14 1366.09,695.43 1367.42,693.68 C1367.47,693.61 1367.53,693.53 1367.59,693.45 ZM 1367.35 703.20 C1368.76,700.70 1370.23,698.10 1371.60,695.67 C1370.09,698.35 1368.62,700.97 1367.17,703.56 C1367.23,703.44 1367.29,703.32 1367.35,703.20 ZM 1400.91 642.05 C1400.93,641.95 1400.94,641.86 1400.94,641.78 C1400.95,641.49 1400.76,640.88 1400.39,639.96 C1400.79,640.83 1401.00,641.37 1401.00,641.53 C1401.00,641.65 1400.97,641.83 1400.91,642.05 Z" fill="rgb(173,173,173)"/>
<path d="M -0.00 729.13 C-0.00,723.24 0.14,722.97 22.99,682.86 C39.62,653.68 45.81,641.96 45.37,640.51 C44.76,638.48 18.07,590.73 6.34,570.67 L 0.00 559.83 L 0.00 540.34 L 0.00 520.85 L 23.08 480.47 C39.82,451.19 45.99,439.54 45.53,438.10 C44.47,434.75 1.88,359.64 0.78,359.17 C0.35,358.98 0.00,349.69 0.00,338.52 L 0.00 318.21 L 22.50 278.75 C36.97,253.39 45.00,238.30 45.00,236.52 C45.00,233.94 36.46,218.25 8.84,170.09 L -0.00 154.68 L -0.00 135.32 L 0.00 115.96 L 11.66 95.23 C18.08,83.83 28.20,66.09 34.16,55.81 C40.21,45.39 45.00,36.00 45.00,34.58 C45.00,33.18 40.99,24.82 36.09,16.00 L 27.18 -0.04 L 45.33 0.23 L 63.49 0.50 L 68.03 8.64 C70.53,13.12 73.18,17.51 73.92,18.40 C75.13,19.86 80.07,19.99 123.37,19.76 C168.72,19.51 171.49,19.40 171.82,17.71 C172.01,16.72 170.14,12.33 167.66,7.96 L 163.15 0.00 L 180.98 0.00 L 198.81 0.00 L 206.54 13.75 C210.79,21.31 215.12,29.00 216.15,30.83 L 218.03 34.17 L 202.34 61.83 C178.08,104.62 173.00,113.80 173.00,114.87 C173.00,115.41 173.71,116.56 174.57,117.43 C175.95,118.81 181.53,119.00 220.82,118.99 C245.39,118.98 266.50,118.71 267.71,118.38 C270.38,117.66 271.85,115.35 289.51,84.00 C297.10,70.53 306.22,54.39 309.78,48.14 C313.34,41.89 316.25,35.74 316.25,34.46 C316.25,33.18 312.37,25.16 307.62,16.64 C302.88,8.12 299.00,0.88 299.00,0.57 C299.00,0.26 306.99,0.00 316.76,0.00 L 334.53 0.00 L 338.93 7.99 C346.33,21.41 339.79,20.00 394.57,20.00 C438.25,20.00 442.11,19.86 442.71,18.31 C443.11,17.27 441.84,13.76 439.43,9.22 C437.27,5.15 435.35,1.41 435.17,0.91 C434.97,0.38 442.23,0.00 452.37,0.00 L 469.90 0.00 L 479.53 17.01 L 489.17 34.02 L 483.71 43.76 C480.71,49.12 471.39,65.65 463.00,80.50 C443.71,114.64 443.84,114.41 444.54,116.26 C444.87,117.11 446.12,118.07 447.32,118.39 C448.52,118.71 469.59,118.98 494.14,118.99 C535.22,119.00 538.94,118.86 540.83,117.25 C543.04,115.37 586.69,38.95 587.62,35.34 C588.01,33.80 585.59,28.55 579.34,17.38 C574.48,8.69 570.35,1.23 570.17,0.79 C569.98,0.36 577.93,0.00 587.84,0.00 L 605.84 -0.00 L 610.36 8.29 C612.84,12.85 615.73,17.35 616.78,18.30 C618.53,19.88 622.41,20.00 666.09,19.76 L 713.50 19.50 L 713.82 17.23 C714.01,15.91 712.42,11.97 710.07,7.89 C707.83,4.00 706.00,0.63 706.00,0.39 C706.00,0.15 713.98,0.08 723.73,0.23 L 741.45 0.50 L 747.66 11.50 C751.07,17.55 755.31,25.20 757.07,28.50 L 760.28 34.50 L 738.16 73.61 C726.00,95.12 715.78,113.40 715.46,114.23 C715.15,115.06 715.62,116.48 716.51,117.37 C717.97,118.83 722.96,119.00 763.96,119.00 C806.14,119.00 809.94,118.86 811.85,117.25 C815.00,114.60 859.00,37.37 859.00,34.50 C859.00,33.07 852.69,21.04 841.30,0.75 C841.07,0.34 848.97,0.00 858.85,0.00 L 876.83 -0.00 L 880.55 6.75 C882.60,10.46 885.36,14.97 886.69,16.76 L 889.12 20.02 L 936.81 19.76 L 984.50 19.50 L 984.82 17.23 C985.01,15.91 983.42,11.97 981.07,7.89 C978.83,4.00 977.00,0.64 977.00,0.41 C977.00,0.19 984.99,0.01 994.75,0.03 L 1012.50 0.06 L 1021.50 16.26 C1026.45,25.18 1030.64,33.00 1030.81,33.64 C1031.12,34.84 1028.37,39.86 1002.51,85.46 C994.42,99.74 987.40,112.44 986.93,113.68 C986.26,115.46 986.54,116.26 988.26,117.47 C991.45,119.70 1079.44,119.78 1082.62,117.55 C1084.49,116.25 1092.00,103.49 1120.93,52.52 C1125.92,43.72 1130.00,35.65 1130.00,34.57 C1130.00,32.89 1122.69,18.80 1114.27,4.25 L 1111.81 0.00 L 1129.84 -0.00 L 1147.86 -0.00 L 1153.03 8.96 C1155.88,13.89 1158.77,18.40 1159.47,18.97 C1160.32,19.68 1176.21,19.93 1208.11,19.76 L 1255.50 19.50 L 1255.82 17.23 C1256.01,15.94 1254.49,12.03 1252.32,8.23 C1250.22,4.53 1248.35,1.16 1248.17,0.75 C1247.98,0.34 1255.86,0.02 1265.67,0.04 L 1283.50 0.08 L 1292.50 16.13 C1297.45,24.95 1301.65,32.82 1301.83,33.62 C1302.15,35.01 1297.14,44.16 1270.35,91.16 C1263.56,103.08 1258.00,113.75 1258.00,114.88 C1258.00,116.01 1258.87,117.40 1259.93,117.96 C1261.19,118.63 1277.76,119.00 1306.88,119.00 L 1351.89 119.00 L 1354.40 116.75 C1355.79,115.51 1365.08,100.10 1375.06,82.50 C1385.04,64.90 1394.96,47.42 1397.10,43.66 C1399.25,39.90 1401.00,35.75 1401.00,34.45 C1401.00,32.46 1389.29,9.95 1384.26,2.28 L 1382.77 0.00 L 1401.14 0.01 L 1419.50 0.02 L 1422.78 6.26 L 1426.06 12.50 L 1426.03 37.69 L 1426.00 62.88 L 1411.88 87.69 C1404.12,101.34 1394.67,117.90 1390.88,124.51 C1387.10,131.12 1384.00,137.38 1384.00,138.44 C1384.00,140.06 1407.85,183.29 1421.71,206.78 L 1426.00 214.06 L 1426.00 239.72 L 1426.00 265.39 L 1405.00 302.16 C1393.45,322.39 1384.00,339.80 1384.00,340.86 C1384.00,342.99 1391.34,356.53 1412.11,392.70 L 1426.00 416.90 L 1426.00 442.45 L 1426.00 467.99 L 1405.00 504.81 C1393.45,525.06 1384.00,542.46 1384.00,543.47 C1384.00,545.20 1396.24,567.44 1416.90,603.27 L 1426.00 619.04 L 1426.00 644.70 L 1426.00 670.36 L 1413.14 692.93 C1406.06,705.34 1397.85,719.87 1394.89,725.21 L 1389.50 734.93 L 1303.75 734.96 C1256.59,734.98 1218.00,734.84 1218.00,734.64 C1218.00,734.27 1224.27,723.10 1245.63,685.38 C1252.88,672.58 1256.81,664.66 1256.41,663.63 C1255.85,662.16 1251.19,662.00 1207.94,662.00 L 1160.09 662.00 L 1158.49 664.25 C1156.76,666.68 1154.03,671.42 1132.48,709.50 L 1118.33 734.50 L 1032.64 734.76 L 946.95 735.01 L 948.96 731.08 C950.79,727.50 959.68,711.66 978.85,677.86 C983.28,670.06 985.79,664.60 985.40,663.61 C984.85,662.16 980.02,662.00 937.05,662.00 C892.83,662.00 889.20,662.13 887.79,663.75 C886.96,664.71 877.38,681.14 866.50,700.25 L 846.73 735.00 L 761.36 735.00 C714.41,735.00 676.00,734.66 676.00,734.25 C676.01,733.84 676.96,731.94 678.12,730.04 C682.12,723.47 713.63,667.50 714.23,665.87 C714.57,664.98 714.34,663.74 713.72,663.12 C712.44,661.84 619.29,661.50 617.41,662.77 C616.81,663.17 608.78,676.78 599.56,693.00 C590.34,709.22 581.17,725.31 579.19,728.75 L 575.58 735.00 L 490.29 735.00 C443.38,735.00 405.00,734.70 405.00,734.33 C405.00,733.96 409.23,726.20 414.39,717.08 C419.56,707.96 428.12,692.85 433.42,683.50 C438.72,674.15 442.93,665.60 442.78,664.50 C442.50,662.54 441.64,662.50 394.83,662.24 C355.53,662.03 346.93,662.22 345.83,663.35 C345.10,664.10 335.51,680.53 324.52,699.86 L 304.54 735.00 L 218.65 735.00 L 132.77 735.00 L 134.22 732.75 C141.30,721.74 172.09,665.70 171.82,664.30 C171.49,662.60 168.90,662.50 123.04,662.50 L 74.61 662.50 L 54.01 698.50 L 33.42 734.50 L 16.71 734.77 L 0.00 735.05 L -0.00 729.13 ZM 269.69 724.51 C270.86,723.68 273.51,719.97 275.57,716.26 C277.64,712.54 287.80,694.58 298.16,676.34 C308.52,658.11 317.00,642.43 317.00,641.51 C317.00,640.59 311.20,629.63 304.11,617.17 C297.02,604.70 286.55,586.17 280.84,576.00 L 270.46 557.50 L 222.30 557.24 C166.25,556.94 170.04,556.06 176.82,567.73 C181.69,576.09 211.69,629.61 215.43,636.61 L 218.17 641.73 L 205.72 663.61 C169.24,727.78 171.85,722.69 174.48,724.61 C177.42,726.76 266.62,726.66 269.69,724.51 ZM 540.70 724.49 C541.89,723.67 548.13,713.65 554.58,702.24 C561.03,690.83 569.53,675.88 573.47,669.00 C586.58,646.14 588.21,642.89 587.77,640.58 C587.54,639.35 581.11,627.35 573.50,613.92 C565.89,600.49 555.57,582.30 550.58,573.50 L 541.50 557.50 L 493.36 557.24 C449.25,557.00 445.17,557.12 444.58,558.64 C444.16,559.74 451.61,574.01 466.47,600.59 C478.86,622.75 489.00,641.18 489.00,641.55 C489.00,641.92 482.33,653.98 474.17,668.36 C466.01,682.74 455.89,700.60 451.67,708.05 C447.45,715.50 444.00,722.11 444.00,722.75 C444.00,725.65 448.44,725.94 493.03,725.97 C531.99,726.00 538.86,725.78 540.70,724.49 ZM 813.50 722.75 C817.66,717.52 859.00,643.86 859.00,641.67 C859.00,640.58 855.45,633.34 851.11,625.59 C826.31,581.32 814.11,559.84 813.00,558.50 C811.92,557.20 805.35,557.00 764.58,557.00 C716.15,557.00 714.37,557.14 715.76,560.87 C716.10,561.77 724.45,576.90 734.33,594.50 C761.76,643.36 760.44,640.74 759.12,643.63 C758.15,645.76 743.01,672.67 722.04,709.50 C714.96,721.94 714.73,722.58 716.61,724.47 C717.94,725.80 724.24,726.00 764.53,726.00 L 810.91 726.00 L 813.50 722.75 ZM 1083.25 724.75 C1084.14,724.06 1093.27,708.65 1103.52,690.50 C1113.78,672.35 1123.94,654.50 1126.09,650.83 C1128.24,647.15 1130.00,643.08 1130.00,641.78 C1130.00,640.47 1122.76,626.60 1113.91,610.95 C1105.05,595.30 1094.93,577.27 1091.40,570.87 C1087.87,564.47 1084.38,558.73 1083.63,558.11 C1082.65,557.30 1068.93,557.05 1034.89,557.24 L 987.50 557.50 L 987.20 559.63 C987.01,560.91 991.37,569.70 998.11,581.63 C1004.28,592.56 1011.33,605.10 1013.77,609.50 C1016.21,613.90 1021.09,622.53 1024.61,628.68 C1028.12,634.83 1031.00,640.42 1031.00,641.11 C1031.00,641.80 1024.63,653.64 1016.85,667.43 C982.98,727.43 985.55,722.41 987.58,724.44 C988.95,725.81 994.81,726.00 1035.38,726.00 C1070.84,726.00 1082.00,725.71 1083.25,724.75 ZM 1355.14 723.75 C1356.24,722.51 1360.41,715.65 1364.40,708.50 C1372.45,694.10 1380.61,679.71 1392.86,658.25 C1397.34,650.42 1401.00,642.89 1401.00,641.53 C1401.00,639.47 1366.55,576.75 1357.32,562.00 L 1354.50 557.50 L 1306.50 557.50 L 1258.50 557.50 L 1258.19 559.68 C1258.01,560.96 1260.54,566.53 1264.32,573.18 C1267.85,579.41 1274.92,591.92 1280.02,601.00 C1285.11,610.08 1292.14,622.55 1295.64,628.72 C1299.14,634.88 1302.00,640.58 1302.00,641.38 C1302.00,642.18 1296.30,652.88 1289.34,665.16 C1275.94,688.80 1265.90,706.62 1260.41,716.47 C1254.80,726.55 1252.11,726.00 1306.73,726.00 L 1353.15 726.00 L 1355.14 723.75 ZM 170.07 626.96 C171.13,626.40 172.00,625.21 172.00,624.32 C172.00,623.44 163.28,607.37 152.62,588.61 C141.96,569.85 131.84,552.00 130.14,548.95 L 127.04 543.41 L 140.83 518.95 C148.41,505.50 158.55,487.56 163.35,479.07 C168.33,470.28 171.96,462.75 171.80,461.57 C171.50,459.51 171.17,459.50 123.91,459.24 C79.56,459.00 76.22,459.10 74.76,460.74 C73.34,462.33 64.95,476.84 37.19,525.67 C32.14,534.56 28.00,542.40 28.00,543.08 C28.00,545.96 72.01,623.56 75.17,626.25 C77.06,627.86 80.84,628.00 122.68,628.00 C152.10,628.00 168.81,627.63 170.07,626.96 ZM 441.07 626.96 C442.13,626.40 443.00,625.21 443.00,624.32 C443.00,623.43 438.11,614.11 432.14,603.61 C403.09,552.48 398.67,544.54 398.67,543.50 C398.67,542.89 408.67,524.70 420.89,503.08 C434.75,478.56 443.00,462.97 442.81,461.64 L 442.50 459.50 L 394.91 459.24 C350.54,459.00 347.23,459.10 345.84,460.74 C345.02,461.71 336.33,476.67 326.52,494.00 C316.71,511.33 306.44,529.45 303.70,534.29 C299.38,541.88 298.86,543.39 299.80,545.46 C300.87,547.80 341.36,619.41 344.03,623.69 C344.79,624.89 346.32,626.32 347.45,626.87 C350.31,628.26 438.49,628.35 441.07,626.96 ZM 712.80 626.80 C713.46,626.14 714.00,624.84 714.00,623.90 C714.00,622.97 708.91,613.27 702.68,602.35 C674.66,553.19 669.83,544.12 670.51,541.98 C670.87,540.83 674.43,534.17 678.41,527.19 C689.52,507.69 712.60,466.78 713.94,464.19 C716.64,458.98 716.82,459.00 665.50,459.00 C628.91,459.00 618.01,459.28 617.22,460.25 C616.33,461.33 601.06,487.96 577.53,529.46 C573.80,536.04 570.75,542.38 570.75,543.55 C570.75,544.72 579.06,560.26 589.21,578.09 C599.37,595.92 609.36,613.53 611.42,617.24 C617.90,628.92 613.26,628.00 665.93,628.00 C700.12,628.00 711.90,627.70 712.80,626.80 ZM 984.41 626.10 C986.06,624.28 985.34,622.81 967.23,590.85 C956.83,572.51 946.61,554.41 944.51,550.63 L 940.70 543.77 L 943.22 538.63 C944.60,535.81 954.82,517.61 965.92,498.19 C980.27,473.07 985.92,462.32 985.48,460.94 C984.88,459.06 983.50,459.00 937.62,459.00 C901.31,459.00 890.03,459.29 888.85,460.25 C888.01,460.94 884.38,466.67 880.77,473.00 C840.32,544.05 841.66,541.55 842.34,544.89 C842.83,547.24 848.40,557.42 869.52,594.50 C883.75,619.49 887.15,624.99 889.26,626.47 C891.14,627.79 897.77,628.00 937.07,628.00 C980.61,628.00 982.77,627.91 984.41,626.10 ZM 1255.39 626.47 C1257.45,624.41 1257.23,623.92 1243.75,600.43 C1223.26,564.72 1212.00,544.39 1212.00,543.11 C1212.00,542.41 1213.75,538.85 1215.90,535.17 C1234.23,503.77 1257.04,462.47 1256.79,461.14 C1256.50,459.65 1252.06,459.48 1208.94,459.24 C1171.91,459.04 1161.06,459.26 1159.82,460.24 C1158.95,460.93 1153.05,470.73 1146.71,482.00 C1140.37,493.27 1130.40,510.83 1124.56,521.00 C1118.72,531.17 1113.67,540.57 1113.33,541.87 C1112.95,543.36 1113.55,545.95 1114.93,548.79 C1120.43,560.11 1157.37,623.74 1159.61,625.75 L 1162.11 628.00 L 1207.98 628.00 C1247.88,628.00 1254.06,627.80 1255.39,626.47 ZM 813.89 520.15 C815.00,518.60 824.42,502.30 834.84,483.92 C845.26,465.54 854.96,448.48 856.38,446.00 C857.81,443.52 858.98,440.47 858.99,439.21 C859.00,437.19 824.07,373.97 815.36,360.25 L 812.02 355.00 L 763.98 355.00 C722.07,355.00 715.86,355.19 715.36,356.51 C715.01,357.41 723.96,374.24 737.39,397.98 C749.83,419.96 760.00,438.44 760.00,439.04 C760.00,439.65 758.92,442.02 757.61,444.32 C750.40,456.92 721.75,507.51 718.48,513.40 C712.51,524.18 709.54,523.55 765.25,523.23 L 811.89 522.96 L 813.89 520.15 ZM 270.71 520.75 C272.98,518.26 314.67,445.34 316.32,440.97 C317.25,438.50 316.56,436.82 309.52,424.36 C282.65,376.82 271.69,357.83 270.35,356.50 C269.03,355.18 262.67,355.01 221.18,355.24 C177.72,355.48 173.50,355.65 173.21,357.16 C172.90,358.74 175.63,363.84 194.50,397.00 C206.27,417.69 215.53,434.13 216.92,436.80 C218.31,439.46 220.27,435.65 191.77,485.73 C177.89,510.10 173.02,519.50 173.49,520.98 C174.12,522.97 174.86,523.00 221.39,523.00 L 268.65 523.00 L 270.71 520.75 ZM 542.51 519.75 C546.24,515.27 588.00,441.38 588.00,439.26 C588.00,438.32 585.23,432.59 581.85,426.53 C569.32,404.07 546.68,364.35 543.78,359.75 L 540.79 355.00 L 492.86 355.00 C451.07,355.00 444.86,355.19 444.36,356.51 C443.79,358.00 448.37,366.70 466.51,398.50 C471.53,407.30 478.67,419.97 482.38,426.66 L 489.13 438.82 L 486.92 443.16 C485.70,445.55 475.55,463.59 464.35,483.26 C453.16,502.92 444.00,519.37 444.00,519.81 C444.00,522.82 446.84,523.00 493.10,523.00 L 539.80 523.00 L 542.51 519.75 ZM 1084.22 521.25 C1085.07,520.29 1087.81,515.90 1090.31,511.50 C1092.82,507.10 1102.58,490.00 1112.00,473.50 C1121.43,457.00 1129.38,442.08 1129.68,440.35 C1130.29,436.85 1130.97,438.16 1102.20,387.50 C1093.14,371.55 1085.04,357.71 1084.20,356.74 C1082.78,355.10 1079.43,355.00 1034.59,355.24 C987.00,355.50 986.50,355.52 986.56,357.53 C986.59,358.65 996.60,377.17 1008.81,398.70 C1021.01,420.23 1031.00,438.39 1031.00,439.05 C1031.00,440.11 1023.81,453.01 992.88,507.42 C987.52,516.86 986.31,519.72 987.09,521.17 C988.02,522.90 990.55,523.00 1035.38,523.00 C1079.19,523.00 1082.80,522.87 1084.22,521.25 ZM 1355.24 521.25 C1356.09,520.29 1363.54,507.58 1371.78,493.00 C1380.02,478.42 1389.89,461.10 1393.71,454.50 C1397.53,447.90 1400.97,441.65 1401.35,440.62 C1401.81,439.36 1400.67,436.24 1397.88,431.12 C1388.03,413.07 1356.65,358.35 1355.24,356.75 C1353.80,355.13 1350.16,355.00 1305.95,355.00 C1262.97,355.00 1258.15,355.16 1257.60,356.61 C1256.97,358.24 1257.73,359.68 1276.97,393.50 C1282.29,402.85 1290.10,416.59 1294.32,424.03 C1298.54,431.48 1302.00,438.21 1302.00,439.00 C1302.00,439.79 1299.80,444.27 1297.11,448.97 C1294.43,453.66 1287.39,466.05 1281.49,476.50 C1275.58,486.95 1267.60,501.01 1263.75,507.75 C1257.96,517.90 1256.97,520.26 1258.00,521.50 C1259.07,522.79 1265.71,523.00 1306.47,523.00 C1350.18,523.00 1353.81,522.87 1355.24,521.25 ZM 171.31 422.87 C172.13,421.58 169.85,416.84 160.51,400.37 C154.01,388.89 143.78,370.82 137.78,360.21 L 126.88 340.91 L 131.74 332.21 C134.42,327.42 144.61,309.46 154.39,292.31 C164.20,275.09 172.01,260.31 171.82,259.31 C171.49,257.60 168.89,257.49 123.92,257.24 L 76.37 256.98 L 74.33 259.24 C72.38,261.42 32.71,330.35 29.30,337.51 C27.73,340.78 27.74,341.23 29.38,344.67 C32.95,352.15 72.31,420.58 74.30,422.76 L 76.37 425.02 L 123.32 424.76 C165.51,424.53 170.39,424.33 171.31,422.87 ZM 442.31 422.87 C443.42,421.11 443.32,420.90 419.70,379.50 C413.11,367.95 405.51,354.52 402.81,349.66 L 397.91 340.83 L 417.67 306.16 C442.65,262.36 443.50,260.74 442.71,258.68 C442.12,257.14 438.17,257.00 394.69,257.00 C350.83,257.00 347.19,257.13 345.74,258.75 C344.09,260.58 313.05,314.62 303.98,331.44 L 298.76 341.13 L 301.98 347.31 C308.73,360.25 343.41,420.60 345.34,422.76 L 347.37 425.02 L 394.32 424.76 C436.51,424.53 441.39,424.33 442.31,422.87 ZM 713.87 423.24 C714.61,421.85 711.28,415.27 698.30,392.49 C689.22,376.54 678.93,358.37 675.44,352.10 L 669.09 340.71 L 671.42 336.60 C672.70,334.35 678.02,325.08 683.24,316.00 C709.10,271.11 714.12,261.86 713.82,259.73 L 713.50 257.50 L 665.91 257.24 C621.55,257.00 618.22,257.10 616.80,258.74 C615.49,260.24 596.91,292.56 576.66,328.56 C573.55,334.10 571.00,339.63 571.00,340.85 C571.00,342.08 571.96,344.97 573.14,347.29 C577.36,355.58 615.22,421.54 616.75,423.25 C618.19,424.87 621.82,425.00 665.62,425.00 C709.77,425.00 712.99,424.88 713.87,423.24 ZM 984.87 423.24 C985.61,421.85 983.00,416.51 972.78,398.49 C942.65,345.35 940.79,341.90 941.34,339.83 C941.63,338.70 951.81,320.35 963.97,299.06 C978.64,273.35 985.85,259.77 985.43,258.67 C984.84,257.14 980.67,257.00 936.91,257.00 L 889.03 257.00 L 886.58 260.75 C879.09,272.21 842.00,338.78 842.00,340.76 C842.00,342.04 842.74,344.54 843.64,346.30 C847.70,354.21 886.39,421.68 887.77,423.25 C889.20,424.87 892.82,425.00 936.62,425.00 C980.80,425.00 983.99,424.88 984.87,423.24 ZM 1255.94 423.12 C1256.77,421.57 1253.61,415.39 1238.17,388.37 C1213.65,345.43 1212.00,342.43 1212.00,340.78 C1212.00,340.01 1222.14,321.65 1234.53,299.97 C1246.92,278.29 1256.93,259.87 1256.77,259.03 C1256.51,257.69 1250.56,257.47 1208.26,257.24 L 1160.04 256.98 L 1157.63 260.74 C1149.50,273.39 1113.00,339.17 1113.00,341.16 C1113.00,343.21 1150.18,410.03 1157.56,421.25 L 1160.03 425.00 L 1207.48 425.00 C1252.94,425.00 1254.97,424.92 1255.94,423.12 ZM 269.79 319.25 C271.90,317.41 317.00,238.83 317.00,236.99 C317.00,235.42 313.93,229.58 302.53,209.50 C296.92,199.60 287.89,183.62 282.48,174.00 C277.07,164.38 271.74,155.49 270.65,154.25 L 268.65 152.00 L 222.08 152.02 C194.77,152.02 174.89,152.42 174.01,152.97 C171.78,154.38 172.66,156.17 194.56,194.71 C205.42,213.85 215.21,231.08 216.30,233.02 L 218.28 236.54 L 201.79 265.52 C180.19,303.51 173.00,316.41 173.00,317.21 C173.00,317.56 173.71,318.56 174.57,319.43 C175.95,320.81 181.64,321.00 221.96,321.00 C264.16,321.00 267.94,320.86 269.79,319.25 ZM 539.95 320.03 C540.96,319.49 545.60,312.40 550.27,304.28 C576.21,259.19 588.00,237.99 588.00,236.44 C588.00,235.49 583.11,226.11 577.13,215.60 C571.15,205.10 561.19,187.50 554.99,176.50 C548.79,165.50 542.80,155.49 541.68,154.25 L 539.65 152.00 L 492.95 152.00 C451.01,152.00 446.11,152.17 444.89,153.63 C443.29,155.56 442.72,154.45 469.69,201.79 C479.81,219.55 488.34,234.71 488.63,235.49 C489.14,236.80 484.76,244.83 455.93,295.50 C449.99,305.95 444.84,315.23 444.50,316.12 C444.16,317.02 444.61,318.47 445.51,319.37 C446.97,320.83 451.93,321.00 492.64,321.00 C520.28,321.00 538.85,320.62 539.95,320.03 ZM 812.44 319.06 C815.54,315.64 859.00,238.57 859.00,236.50 C859.00,235.40 854.02,225.73 847.95,215.00 C815.45,157.66 812.63,152.95 810.58,152.45 C809.43,152.17 787.85,152.07 762.61,152.22 C721.64,152.47 716.61,152.67 715.70,154.11 C714.68,155.73 717.84,161.59 751.18,219.94 C756.03,228.44 760.00,235.84 760.00,236.40 C760.00,237.41 756.01,244.58 730.73,288.96 C714.55,317.35 714.53,317.39 716.61,319.47 C717.94,320.80 724.16,321.00 764.42,321.00 C808.92,321.00 810.76,320.93 812.44,319.06 ZM 1083.71 318.75 C1087.15,314.99 1130.00,238.88 1130.00,236.52 C1130.00,235.31 1124.91,225.37 1118.68,214.41 C1112.45,203.46 1102.05,185.16 1095.56,173.74 C1087.09,158.83 1083.16,152.83 1081.63,152.46 C1080.46,152.18 1058.85,152.07 1033.61,152.22 C992.91,152.47 987.60,152.68 986.71,154.09 C985.72,155.67 989.96,163.54 1022.19,219.92 C1027.03,228.39 1031.00,235.73 1031.00,236.21 C1031.00,237.58 1029.13,240.99 1007.35,279.23 C996.16,298.89 987.00,315.79 987.00,316.78 C987.00,320.96 987.46,321.00 1035.53,321.00 L 1081.65 321.00 L 1083.71 318.75 ZM 1354.72 318.75 C1355.86,317.51 1364.98,302.10 1374.99,284.50 C1384.99,266.90 1394.94,249.50 1397.09,245.83 C1399.24,242.15 1401.00,238.02 1401.00,236.64 C1401.00,234.41 1389.38,213.19 1363.27,167.74 C1357.34,157.41 1354.15,152.83 1352.65,152.47 C1351.47,152.18 1329.85,152.07 1304.61,152.22 C1263.68,152.47 1258.61,152.67 1257.70,154.11 C1256.72,155.66 1266.84,174.35 1295.17,223.31 C1298.92,229.81 1302.00,235.72 1302.00,236.45 C1302.00,237.53 1278.92,278.85 1262.04,308.00 C1257.19,316.38 1256.96,317.16 1258.79,319.25 C1260.20,320.87 1263.76,321.00 1306.48,321.00 L 1352.65 321.00 L 1354.72 318.75 ZM 170.80 221.80 C171.46,221.14 172.00,220.00 172.00,219.27 C172.00,218.54 166.68,208.62 160.17,197.22 C148.79,177.28 130.37,144.60 128.22,140.54 C126.90,138.04 126.89,138.06 151.27,95.43 C161.98,76.70 171.07,60.36 171.46,59.14 C173.10,53.96 173.45,54.00 123.03,54.00 C79.80,54.00 76.19,54.13 74.75,55.75 C73.32,57.35 59.12,81.78 36.82,121.00 C31.98,129.52 28.01,137.35 28.00,138.38 C28.00,139.41 29.30,142.56 30.89,145.38 C52.85,184.28 71.77,217.15 73.69,219.75 L 76.10 223.00 L 122.85 223.00 C157.88,223.00 169.90,222.70 170.80,221.80 ZM 442.00 221.51 C442.68,220.68 443.02,219.22 442.76,218.26 C442.50,217.29 432.33,199.01 420.17,177.63 C400.93,143.79 398.20,138.47 399.15,136.63 C399.75,135.46 409.86,117.60 421.62,96.95 C433.38,76.29 443.00,58.45 443.00,57.30 C443.00,56.15 442.29,54.94 441.42,54.61 C440.55,54.27 419.02,54.00 393.57,54.00 C350.76,54.00 347.20,54.13 345.79,55.75 C344.05,57.74 304.24,127.40 300.88,134.32 L 298.67 138.86 L 304.99 150.18 C326.90,189.42 344.49,219.74 346.21,221.25 C348.06,222.86 351.86,223.00 394.49,223.00 C434.32,223.00 440.93,222.79 442.00,221.51 ZM 713.91 221.16 C714.97,219.18 716.57,222.22 685.18,166.59 C676.83,151.79 670.00,139.11 670.00,138.43 C670.00,137.74 671.75,134.10 673.89,130.34 C700.94,82.75 710.99,64.98 712.36,62.30 C714.43,58.26 714.45,55.39 712.42,54.61 C711.55,54.27 689.98,54.00 664.49,54.00 L 618.14 54.00 L 616.22 56.75 C614.46,59.27 604.42,76.78 580.02,119.87 C574.92,128.87 570.75,137.26 570.75,138.51 C570.75,139.75 577.85,153.31 586.54,168.64 C611.57,212.80 616.04,220.42 617.77,221.75 C619.01,222.71 630.27,223.00 666.16,223.00 C710.54,223.00 712.98,222.91 713.91,221.16 ZM 985.00 220.99 C985.89,219.34 985.38,217.78 982.16,212.24 C978.30,205.61 959.16,171.94 947.14,150.62 C943.76,144.64 941.00,139.13 941.00,138.38 C941.00,137.64 950.51,120.31 962.14,99.88 C973.76,79.44 983.74,61.51 984.30,60.01 C986.67,53.73 988.79,54.00 937.22,54.00 C901.27,54.00 890.01,54.29 888.78,55.25 C887.90,55.94 880.78,67.75 872.96,81.50 C865.14,95.25 854.98,113.08 850.37,121.12 C845.77,129.16 842.00,136.91 842.00,138.34 C842.00,141.62 884.45,217.31 888.64,221.50 C889.93,222.79 896.67,223.00 937.04,223.00 C982.97,223.00 983.95,222.96 985.00,220.99 ZM 1255.99 221.03 C1256.88,219.36 1254.48,214.55 1240.67,190.28 C1213.72,142.90 1212.00,139.80 1212.00,138.49 C1212.00,137.80 1222.14,119.41 1234.54,97.63 C1253.86,63.71 1256.93,57.74 1256.01,56.02 C1254.95,54.04 1254.04,54.00 1208.16,54.00 C1172.22,54.00 1161.03,54.29 1159.86,55.25 C1158.25,56.57 1153.66,64.38 1132.70,101.46 C1113.68,135.12 1113.05,136.31 1113.02,138.57 C1113.01,139.71 1121.48,155.68 1131.85,174.07 C1154.89,214.91 1156.65,217.92 1159.27,220.75 L 1161.35 223.00 L 1208.14 223.00 C1253.70,223.00 1254.96,222.95 1255.99,221.03 ZM 40.88 731.25 C43.97,725.24 77.02,667.58 77.86,666.74 C78.28,666.32 98.45,666.10 122.69,666.24 L 166.77 666.50 L 156.10 685.00 C150.24,695.17 141.47,710.59 136.62,719.25 L 127.80 735.00 L 83.38 735.00 L 38.96 735.00 L 40.88 731.25 ZM 311.78 731.75 C312.84,729.96 321.71,714.44 331.49,697.25 L 349.26 666.00 L 393.71 666.00 L 438.16 666.00 L 436.20 669.25 C435.11,671.04 429.40,681.05 423.50,691.50 C417.59,701.95 409.64,716.01 405.81,722.75 L 398.85 735.00 L 354.34 735.00 L 309.84 735.00 L 311.78 731.75 ZM 582.21 732.76 C583.01,731.52 591.90,715.99 601.98,698.25 L 620.29 666.00 L 664.73 666.00 L 709.17 666.00 L 706.77 670.25 C690.49,699.08 676.06,724.57 673.52,729.00 L 670.37 734.50 L 625.56 734.76 L 580.76 735.02 L 582.21 732.76 ZM 853.30 733.66 C853.70,732.61 880.44,685.21 889.63,669.26 L 891.50 666.01 L 935.81 666.01 C960.18,666.00 979.93,666.34 979.70,666.75 C979.46,667.16 973.66,677.40 966.81,689.50 C959.95,701.60 951.45,716.77 947.92,723.22 L 941.50 734.94 L 897.14 734.97 C860.47,735.00 852.88,734.77 853.30,733.66 ZM 1124.27 733.75 C1125.03,731.75 1159.70,670.74 1161.48,668.25 L 1163.09 666.00 L 1207.14 666.00 L 1251.19 666.00 L 1247.93 671.75 C1239.77,686.11 1229.28,704.78 1221.25,719.24 L 1212.50 734.97 L 1168.14 734.99 C1132.98,735.00 1123.89,734.74 1124.27,733.75 ZM 1395.00 734.57 C1395.00,734.34 1400.33,724.77 1406.84,713.32 C1413.36,701.87 1420.33,689.58 1422.33,686.00 L 1425.97 679.50 L 1425.98 707.25 L 1426.00 735.00 L 1410.50 735.00 C1401.97,735.00 1395.00,734.81 1395.00,734.57 ZM 0.02 641.55 C0.01,601.42 0.38,570.02 0.86,570.55 C1.74,571.52 36.44,632.92 39.37,638.70 L 41.00 641.89 L 22.35 674.70 C12.09,692.74 2.87,708.85 1.86,710.50 C0.08,713.43 0.03,711.72 0.02,641.55 ZM 1419.07 597.75 C1400.50,565.29 1389.00,544.63 1389.00,543.73 C1389.00,542.66 1398.32,525.80 1415.39,496.00 L 1425.99 477.50 L 1426.00 543.25 C1426.00,579.41 1425.89,609.00 1425.75,609.00 C1425.61,609.00 1422.60,603.93 1419.07,597.75 ZM 0.00 439.00 C0.00,395.58 0.36,367.97 0.92,368.55 C1.82,369.48 36.11,429.40 39.38,435.75 C40.94,438.79 40.94,439.21 39.37,442.25 C36.44,447.94 1.75,508.46 0.86,509.45 C0.38,509.98 0.00,478.79 0.00,439.00 ZM 1407.67 375.46 C1397.87,358.22 1389.61,343.21 1389.31,342.09 C1388.95,340.68 1394.40,330.22 1407.14,307.86 L 1425.50 275.66 L 1425.76 308.90 C1425.91,327.19 1425.91,356.69 1425.76,374.47 L 1425.50 406.79 L 1407.67 375.46 ZM 0.03 237.25 C0.01,198.06 0.34,166.02 0.75,166.05 C1.16,166.07 9.28,179.91 18.80,196.80 C28.31,213.68 37.25,229.52 38.67,232.00 L 41.23 236.50 L 21.80 270.50 C11.11,289.20 1.84,305.40 1.21,306.50 C0.34,308.02 0.05,291.48 0.03,237.25 ZM 1407.18 171.92 C1396.60,153.25 1389.06,138.89 1389.32,137.90 C1389.56,136.96 1397.80,121.96 1407.63,104.56 L 1425.50 72.93 L 1425.76 106.04 C1425.91,124.25 1425.91,153.79 1425.76,171.68 L 1425.50 204.22 L 1407.18 171.92 ZM 179.44 112.26 C179.81,111.29 185.87,100.38 192.91,88.00 C199.96,75.62 209.43,58.97 213.97,51.00 C218.51,43.03 222.23,35.52 222.24,34.33 C222.24,33.13 218.37,25.22 213.62,16.75 C208.88,8.28 205.00,1.04 205.00,0.66 C205.00,0.29 224.83,0.10 249.07,0.24 L 293.15 0.50 L 302.63 17.33 L 312.11 34.16 L 301.10 53.83 C295.05,64.65 284.96,82.50 278.68,93.50 L 267.27 113.50 L 223.02 113.76 C181.14,114.01 178.81,113.93 179.44,112.26 ZM 450.00 113.56 C450.00,113.18 481.60,57.01 491.39,40.00 C492.81,37.53 493.98,35.03 493.99,34.45 C493.99,33.87 489.95,26.12 485.00,17.22 C480.05,8.32 476.00,0.81 476.00,0.52 C476.00,0.23 495.91,0.01 520.25,0.03 L 564.50 0.05 L 573.92 17.21 L 583.33 34.37 L 581.33 37.93 C572.29,54.07 550.39,92.69 545.01,102.00 L 538.37 113.50 L 494.19 113.76 C469.88,113.90 450.00,113.81 450.00,113.56 ZM 721.16 113.20 C721.35,112.75 730.90,95.81 742.38,75.56 C753.87,55.31 763.72,37.54 764.28,36.07 C765.18,33.68 764.30,31.62 756.15,17.04 C751.12,8.05 747.00,0.54 747.00,0.35 C747.00,0.16 766.91,0.01 791.25,0.02 L 835.50 0.03 L 844.50 16.27 C849.45,25.19 853.49,33.41 853.48,34.51 C853.46,36.26 834.86,69.81 815.52,103.00 L 809.41 113.50 L 765.12 113.76 C740.76,113.90 720.98,113.65 721.16,113.20 ZM 993.00 112.93 C993.00,111.94 1017.59,67.77 1030.66,45.31 C1033.59,40.25 1035.99,35.30 1035.99,34.31 C1035.98,33.31 1031.93,25.35 1026.99,16.61 C1022.04,7.87 1018.00,0.56 1018.00,0.36 C1018.00,0.16 1037.91,0.00 1062.25,0.00 L 1106.50 0.00 L 1109.40 5.25 C1111.00,8.14 1115.16,15.51 1118.65,21.64 C1122.14,27.77 1125.00,33.46 1125.00,34.28 C1125.00,35.65 1099.86,80.70 1086.10,104.00 L 1080.48 113.50 L 1036.74 113.76 C1005.72,113.95 993.00,113.70 993.00,112.93 ZM 1264.00 112.92 C1264.00,112.33 1273.68,94.80 1285.50,73.98 C1297.32,53.15 1307.00,35.30 1307.00,34.31 C1307.00,33.31 1304.72,28.45 1301.94,23.50 C1299.16,18.55 1295.08,11.24 1292.87,7.25 L 1288.86 -0.00 L 1333.30 -0.00 L 1377.74 0.00 L 1387.04 16.68 C1392.15,25.85 1396.33,33.88 1396.33,34.52 C1396.33,35.16 1386.27,53.31 1373.97,74.84 L 1351.61 114.00 L 1307.81 114.00 C1277.13,114.00 1264.00,113.68 1264.00,112.92 ZM 0.01 53.25 L 0.00 0.00 L 10.81 0.00 L 21.61 0.00 L 30.21 15.25 C34.93,23.64 39.25,31.41 39.81,32.51 C40.65,34.19 38.42,38.73 26.29,60.01 C18.31,74.03 9.13,90.22 5.89,96.00 L 0.01 106.50 L 0.01 53.25 ZM 76.25 13.25 C73.77,9.64 69.00,1.30 69.00,0.57 C69.00,0.26 88.99,-0.00 113.41,-0.00 L 157.83 -0.00 L 161.92 7.09 C164.16,10.99 165.75,14.59 165.44,15.09 C165.12,15.61 146.42,16.00 121.51,16.00 L 78.14 16.00 L 76.25 13.25 ZM 348.40 14.16 C347.53,13.14 345.26,9.54 343.35,6.15 L 339.87 -0.02 L 384.64 0.24 L 429.40 0.50 L 433.24 7.29 C435.34,11.02 436.80,14.51 436.48,15.04 C436.11,15.63 419.32,16.00 392.93,16.00 C352.43,16.00 349.89,15.89 348.40,14.16 ZM 619.82 14.25 C619.00,13.29 617.27,10.70 615.98,8.50 C614.68,6.30 612.98,3.49 612.20,2.25 L 610.77 0.00 L 655.64 0.01 L 700.50 0.01 L 704.31 7.01 C706.40,10.85 707.84,14.45 707.50,15.00 C707.10,15.64 691.53,16.00 664.10,16.00 C624.58,16.00 621.20,15.87 619.82,14.25 ZM 890.80 14.25 C889.97,13.29 887.66,9.69 885.67,6.25 L 882.06 0.00 L 926.78 0.03 L 971.50 0.07 L 975.64 7.28 C977.91,11.25 979.57,14.84 979.33,15.25 C979.08,15.66 959.40,16.00 935.60,16.00 C895.61,16.00 892.19,15.87 890.80,14.25 ZM 1161.84 14.25 C1161.03,13.29 1158.73,9.69 1156.73,6.25 L 1153.09 -0.00 L 1197.84 -0.00 L 1242.59 0.00 L 1246.72 7.22 C1248.99,11.19 1250.63,14.79 1250.36,15.22 C1250.10,15.65 1230.40,16.00 1206.60,16.00 C1166.60,16.00 1163.20,15.87 1161.84,14.25 ZM 179.00 720.51 C179.00,720.25 187.25,705.51 197.34,687.76 C226.30,636.82 223.56,642.40 221.61,638.31 C219.92,634.77 204.11,606.45 187.88,577.88 C182.99,569.29 179.00,562.04 179.00,561.78 C179.00,560.99 234.33,560.84 251.70,561.58 L 267.90 562.28 L 289.95 601.48 C302.08,623.04 312.00,641.03 312.00,641.46 C312.00,641.89 301.99,659.96 289.75,681.62 L 267.50 721.00 L 223.25 721.00 C198.91,721.00 179.00,720.78 179.00,720.51 ZM 450.00 720.66 C450.00,720.48 459.05,704.39 470.11,684.91 C496.64,638.18 494.59,642.47 492.52,638.08 C490.94,634.73 475.88,607.62 457.83,575.61 C453.52,567.98 450.00,561.68 450.00,561.61 C450.00,561.41 520.27,561.55 529.71,561.78 L 538.91 562.00 L 542.78 568.75 C555.48,590.90 582.26,639.26 582.65,640.76 C582.93,641.84 577.03,653.24 567.76,669.52 C559.32,684.36 549.34,702.01 545.59,708.75 L 538.77 721.00 L 494.39 721.00 C469.97,721.00 450.00,720.85 450.00,720.66 ZM 722.72 717.75 C735.29,696.38 765.00,642.76 765.00,641.43 C765.00,640.48 760.42,631.55 754.83,621.60 C749.23,611.64 740.75,596.53 735.97,588.00 C731.20,579.47 725.93,570.20 724.25,567.38 L 721.21 562.27 L 749.36 561.66 C764.83,561.33 784.86,561.38 793.86,561.78 L 810.21 562.50 L 821.21 582.00 C827.27,592.72 837.12,610.18 843.11,620.79 C849.10,631.41 854.00,640.78 854.00,641.64 C854.00,642.49 844.04,660.69 831.87,682.09 L 809.74 721.00 L 765.27 721.00 L 720.80 721.00 L 722.72 717.75 ZM 993.24 718.75 C994.05,717.51 1000.79,705.70 1008.21,692.50 C1015.63,679.30 1024.92,662.82 1028.85,655.88 C1032.78,648.94 1036.00,642.46 1036.00,641.48 C1036.00,639.47 1035.53,638.60 1010.77,594.78 C1000.91,577.34 993.06,562.71 993.34,562.26 C993.61,561.82 1013.32,561.55 1037.13,561.66 C1077.73,561.84 1080.50,561.97 1081.76,563.68 C1084.26,567.08 1125.30,640.49 1125.31,641.59 C1125.32,642.19 1121.50,649.39 1116.82,657.59 C1112.14,665.79 1102.12,683.41 1094.55,696.75 L 1080.79 721.00 L 1036.28 721.00 L 991.77 721.00 L 993.24 718.75 ZM 1264.45 719.25 C1264.81,718.29 1269.32,710.08 1274.46,701.00 C1279.60,691.92 1289.02,675.28 1295.40,664.00 C1301.78,652.73 1307.00,642.59 1307.00,641.47 C1307.00,640.35 1304.59,635.18 1301.64,629.97 C1273.33,580.00 1263.92,562.67 1264.79,562.13 C1265.35,561.78 1285.03,561.50 1308.53,561.50 L 1351.26 561.50 L 1352.88 563.89 C1354.28,565.95 1360.35,576.63 1391.66,632.08 L 1397.07 641.67 L 1389.03 655.70 C1384.62,663.41 1381.00,670.24 1381.00,670.86 C1381.00,671.49 1380.58,672.00 1380.07,672.00 C1379.56,672.00 1377.05,676.16 1374.49,681.25 C1371.93,686.34 1368.75,691.93 1367.42,693.68 C1366.09,695.43 1365.00,697.14 1365.00,697.48 C1365.00,697.81 1362.02,703.24 1358.37,709.54 L 1351.74 721.00 L 1307.76 721.00 C1266.29,721.00 1263.82,720.90 1264.45,719.25 ZM 75.66 619.25 C74.36,617.19 69.49,608.75 64.85,600.50 C60.20,592.25 51.05,576.10 44.51,564.61 L 32.63 543.73 L 35.56 538.29 C37.18,535.30 47.28,517.47 58.00,498.68 L 77.50 464.50 L 121.75 464.24 C146.09,464.10 166.00,464.19 166.00,464.45 C166.00,464.71 156.27,482.09 144.38,503.08 C132.48,524.07 122.75,542.23 122.75,543.44 C122.75,545.53 126.50,552.49 144.06,583.00 C159.76,610.28 165.83,621.46 165.36,622.22 C165.10,622.65 145.34,623.00 121.45,623.00 L 78.03 623.00 L 75.66 619.25 ZM 343.68 613.75 C340.72,608.66 330.54,590.82 321.07,574.10 L 303.84 543.71 L 306.36 539.08 C307.74,536.54 317.84,518.71 328.80,499.48 L 348.72 464.50 L 393.31 464.24 L 437.91 463.98 L 429.12 479.24 C413.83,505.78 394.34,540.44 393.72,542.16 C393.15,543.78 399.65,555.89 425.82,601.95 C431.90,612.64 436.65,621.75 436.38,622.20 C436.11,622.64 416.35,623.00 392.47,623.00 L 349.07 623.00 L 343.68 613.75 ZM 618.69 619.75 C616.83,617.25 581.52,555.54 576.22,545.53 C574.92,543.09 573.37,546.10 599.20,500.77 L 620.13 464.04 L 664.31 463.77 C688.62,463.62 708.64,463.56 708.81,463.64 C708.98,463.72 699.93,479.92 688.71,499.64 C665.33,540.72 665.00,541.33 665.00,543.55 C665.00,545.16 670.89,556.00 686.97,584.00 C704.53,614.59 708.05,621.11 707.48,622.03 C707.11,622.63 690.53,623.00 663.99,623.00 L 621.10 623.00 L 618.69 619.75 ZM 889.66 619.75 C888.31,617.96 885.21,612.90 882.77,608.50 C880.33,604.10 871.28,588.08 862.66,572.89 C854.05,557.71 847.00,544.55 847.00,543.65 C847.00,542.75 852.68,532.00 859.63,519.76 C866.57,507.52 876.53,489.96 881.75,480.75 L 891.25 464.00 L 935.72 464.00 L 980.20 464.00 L 977.96 467.75 C965.94,487.89 936.00,541.81 936.00,543.32 C936.00,544.84 958.52,585.54 977.73,618.75 L 980.19 623.00 L 936.15 623.00 L 892.10 623.00 L 889.66 619.75 ZM 1160.40 619.25 C1154.23,610.29 1117.90,544.80 1118.18,543.16 C1118.36,542.17 1128.38,523.95 1140.46,502.68 L 1162.42 464.00 L 1206.79 464.00 L 1251.16 464.00 L 1249.19 467.25 C1247.50,470.02 1234.07,493.64 1212.36,531.97 C1209.41,537.18 1207.00,542.24 1207.00,543.22 C1207.00,545.20 1209.70,550.17 1232.71,590.50 C1241.50,605.90 1249.22,619.51 1249.88,620.75 L 1251.07 623.00 L 1207.03 623.00 L 1162.98 623.00 L 1160.40 619.25 ZM 721.69 518.25 C721.45,517.84 724.50,511.88 728.46,505.00 C748.36,470.41 763.16,444.04 764.19,441.32 C765.49,437.87 766.40,439.66 736.84,387.62 C728.13,372.29 721.00,359.58 721.00,359.37 C721.00,359.17 740.77,359.00 764.93,359.00 L 808.86 359.00 L 810.78 361.75 C812.38,364.04 830.01,394.76 850.38,430.77 L 855.06 439.04 L 834.43 475.27 C823.09,495.20 812.72,513.19 811.39,515.25 L 808.97 519.00 L 765.54 519.00 C741.66,519.00 721.93,518.66 721.69,518.25 ZM 179.40 517.40 C179.74,516.50 188.51,500.86 198.87,482.64 C209.24,464.41 218.92,447.14 220.38,444.25 L 223.03 439.00 L 220.61 434.25 C219.28,431.64 214.63,423.20 210.28,415.50 C183.83,368.72 179.00,360.07 179.00,359.55 C179.00,359.24 198.85,359.10 223.11,359.24 L 267.23 359.50 L 280.40 382.50 C305.88,427.00 312.00,438.00 311.97,439.25 C311.95,439.94 301.89,458.05 289.60,479.50 L 267.26 518.50 L 223.02 518.76 C182.54,519.00 178.83,518.88 179.40,517.40 ZM 450.65 518.25 C450.39,517.82 460.04,500.17 472.09,479.03 C484.14,457.88 494.00,439.96 494.00,439.20 C494.00,438.45 488.88,428.75 482.62,417.66 C476.35,406.57 466.45,389.04 460.62,378.71 C454.78,368.37 450.00,359.71 450.00,359.46 C450.00,359.21 469.81,359.00 494.02,359.00 L 538.05 359.00 L 540.57 363.25 C551.79,382.12 582.95,437.81 582.96,439.00 C582.97,439.83 572.97,458.05 560.74,479.50 L 538.50 518.50 L 494.82 518.76 C470.79,518.90 450.92,518.67 450.65,518.25 ZM 992.79 518.45 C992.48,518.15 1001.88,500.94 1013.66,480.20 C1025.44,459.47 1035.33,441.50 1035.64,440.27 C1036.02,438.77 1034.82,435.52 1031.95,430.27 C1026.07,419.53 998.36,370.56 994.86,364.73 C993.29,362.11 992.00,359.75 992.00,359.48 C992.00,359.22 1011.79,359.00 1035.99,359.00 L 1079.97 359.00 L 1082.39 362.75 C1083.71,364.81 1090.31,376.17 1097.04,388.00 C1103.78,399.83 1113.09,416.15 1117.73,424.27 L 1126.18 439.04 L 1119.72 450.27 C1116.16,456.45 1106.38,473.65 1097.98,488.50 C1089.57,503.35 1082.02,516.29 1081.19,517.25 C1079.80,518.87 1076.39,519.00 1036.51,519.00 C1012.76,519.00 993.09,518.75 992.79,518.45 ZM 1264.00 517.89 C1264.00,517.29 1265.95,513.35 1268.33,509.14 C1270.71,504.94 1280.38,487.88 1289.83,471.22 C1299.27,454.57 1307.00,440.05 1307.00,438.96 C1307.00,437.87 1301.07,426.52 1293.81,413.74 C1286.56,400.96 1276.67,383.52 1271.82,375.00 L 1263.01 359.50 L 1306.05 359.24 C1332.33,359.08 1349.79,359.35 1350.89,359.94 C1351.89,360.47 1362.71,378.46 1374.94,399.91 L 1397.18 438.91 L 1375.95 476.21 C1364.27,496.72 1353.85,514.74 1352.79,516.25 L 1350.86 519.00 L 1307.43 519.00 C1276.37,519.00 1264.00,518.68 1264.00,517.89 ZM 76.90 418.72 C74.12,414.85 33.00,342.30 33.00,341.25 C33.00,340.07 36.72,333.36 59.96,292.68 C71.89,271.79 78.05,261.96 79.41,261.60 C80.51,261.32 100.49,261.05 123.82,261.02 C163.75,260.96 166.19,261.06 165.56,262.70 C165.19,263.66 156.42,279.31 146.07,297.47 C135.71,315.64 126.06,332.86 124.60,335.75 L 121.96 341.01 L 124.11 345.25 C126.20,349.39 143.80,380.51 158.64,406.33 C162.70,413.39 165.76,419.57 165.45,420.08 C165.12,420.62 146.97,420.99 121.69,420.97 L 78.50 420.94 L 76.90 418.72 ZM 348.66 419.17 C346.99,417.33 310.85,354.58 306.37,345.74 C304.12,341.31 304.06,340.78 305.47,338.06 C309.96,329.38 347.39,264.27 348.62,263.00 C349.86,261.72 356.61,261.45 394.18,261.15 L 438.29 260.79 L 436.25 264.15 C432.53,270.26 397.30,332.42 395.11,336.75 L 392.96 340.99 L 395.44 345.88 C396.80,348.57 406.71,366.17 417.46,384.98 C428.21,403.79 437.00,419.59 437.00,420.09 C437.00,420.62 418.92,421.00 393.65,421.00 C352.94,421.00 350.21,420.89 348.66,419.17 ZM 618.70 417.75 C616.64,414.96 604.78,394.29 580.57,351.28 L 574.82 341.06 L 596.59 302.78 C608.56,281.73 618.83,263.95 619.42,263.29 C620.22,262.39 632.11,261.90 664.91,261.39 L 709.31 260.71 L 706.25 266.11 C704.56,269.07 694.59,286.58 684.09,305.00 C673.60,323.42 665.00,339.60 665.00,340.94 C665.00,342.29 674.62,360.26 686.50,381.09 C698.33,401.83 708.00,419.29 708.00,419.90 C708.00,420.68 695.52,421.00 664.55,421.00 L 621.10 421.00 L 618.70 417.75 ZM 890.78 419.25 C889.44,417.71 857.04,361.17 849.55,347.31 C847.70,343.88 846.96,341.34 847.36,339.81 C847.94,337.59 887.34,267.59 890.31,263.50 C891.72,261.56 893.13,261.49 936.00,261.15 C960.33,260.96 980.03,261.19 979.78,261.65 C979.52,262.12 969.57,279.62 957.66,300.55 C945.43,322.04 936.01,339.67 936.02,341.05 C936.04,342.40 945.87,360.70 957.89,381.72 C969.90,402.74 979.49,420.18 979.20,420.47 C978.91,420.76 959.24,421.00 935.49,421.00 C895.61,421.00 892.19,420.87 890.78,419.25 ZM 1161.81 419.25 C1159.84,416.96 1120.06,346.61 1118.70,343.03 C1117.54,339.95 1115.24,344.44 1144.33,293.00 C1152.88,277.88 1160.53,264.60 1161.32,263.50 C1162.72,261.56 1164.09,261.49 1206.88,261.20 C1231.15,261.04 1251.00,261.09 1251.00,261.31 C1251.00,261.53 1241.10,278.98 1229.00,300.09 C1216.90,321.20 1207.00,339.50 1207.00,340.77 C1207.00,343.00 1211.51,351.26 1238.08,397.69 C1245.06,409.90 1250.53,420.14 1250.22,420.44 C1249.92,420.75 1230.24,421.00 1206.49,421.00 C1166.61,421.00 1163.20,420.87 1161.81,419.25 ZM 179.00 315.54 C179.00,315.28 188.48,298.35 200.08,277.91 C211.67,257.48 221.63,239.71 222.22,238.43 C223.32,236.00 218.16,226.23 188.32,174.26 C183.20,165.33 179.00,157.79 179.00,157.51 C179.00,157.23 198.91,157.00 223.25,157.01 L 267.50 157.01 L 272.42 165.76 C275.13,170.57 284.97,187.94 294.29,204.36 C303.62,220.79 311.43,234.96 311.66,235.86 C311.89,236.76 309.58,241.77 306.53,247.00 C303.48,252.23 293.42,269.77 284.17,286.00 L 267.37 315.50 L 223.18 315.76 C198.88,315.90 179.00,315.81 179.00,315.54 ZM 450.00 315.21 C450.00,314.76 450.40,313.97 450.88,313.45 C451.88,312.37 488.53,247.81 491.95,241.10 C493.85,237.38 494.01,236.31 493.00,234.10 C491.32,230.41 451.93,160.70 450.87,159.55 C450.39,159.03 450.00,158.24 450.00,157.80 C450.00,157.36 469.92,157.00 494.27,157.00 L 538.53 157.00 L 551.16 179.25 C579.38,229.00 583.00,235.51 583.00,236.59 C583.00,237.21 572.98,255.22 560.72,276.61 L 538.45 315.50 L 494.22 315.76 C469.90,315.90 450.00,315.66 450.00,315.21 ZM 722.00 314.93 C722.00,314.05 756.87,251.85 763.17,241.50 C764.17,239.85 764.99,237.69 765.00,236.70 C765.00,235.71 755.62,218.38 744.16,198.20 C732.70,178.01 722.78,160.49 722.13,159.25 L 720.93 157.00 L 765.34 157.00 L 809.75 157.00 L 817.29 170.25 C845.48,219.83 854.00,235.21 854.00,236.49 C854.00,237.73 818.15,301.39 811.33,312.25 L 808.97 316.00 L 765.49 316.00 C735.20,316.00 722.00,315.67 722.00,314.93 ZM 993.00 315.00 C993.00,314.14 999.14,303.17 1031.11,246.88 C1033.80,242.14 1036.00,237.47 1036.00,236.51 C1036.00,234.96 1022.70,210.87 1001.47,174.00 C997.51,167.12 993.75,160.49 993.10,159.25 L 991.93 157.00 L 1036.34 157.00 L 1080.76 157.00 L 1087.75 169.25 C1091.60,175.99 1097.80,186.90 1101.52,193.50 C1105.24,200.10 1112.04,212.08 1116.64,220.13 C1121.24,228.17 1125.00,235.51 1125.00,236.44 C1125.00,237.36 1120.56,245.86 1115.14,255.31 C1109.72,264.76 1100.42,281.05 1094.49,291.50 C1088.56,301.95 1082.84,311.74 1081.78,313.25 L 1079.86 316.00 L 1036.43 316.00 C1008.14,316.00 993.00,315.65 993.00,315.00 ZM 1264.00 314.98 C1264.00,314.42 1272.37,299.23 1282.61,281.23 C1292.84,263.23 1302.52,246.20 1304.11,243.38 C1305.70,240.56 1307.00,237.47 1307.00,236.51 C1307.00,235.55 1298.40,219.63 1287.89,201.13 C1277.38,182.63 1267.45,165.14 1265.82,162.25 L 1262.85 157.00 L 1307.34 157.00 L 1351.84 157.00 L 1373.30 194.75 C1385.10,215.51 1395.24,233.45 1395.84,234.61 C1396.89,236.66 1390.23,248.92 1353.95,311.74 L 1351.50 315.98 L 1307.75 315.99 C1278.66,316.00 1264.00,315.66 1264.00,314.98 ZM 76.69 215.75 C75.36,213.96 70.21,205.30 65.24,196.50 C60.28,187.70 50.99,171.30 44.61,160.05 C38.22,148.80 33.00,139.06 33.00,138.40 C33.00,137.27 75.10,62.88 77.23,60.25 C78.01,59.28 88.23,59.00 122.12,59.00 C146.26,59.00 166.00,59.23 166.00,59.52 C166.00,59.80 156.82,76.13 145.59,95.79 C134.37,115.46 124.41,133.18 123.46,135.17 C121.42,139.44 118.70,133.85 146.85,183.28 C157.43,201.85 165.82,217.49 165.48,218.03 C165.11,218.63 148.75,219.00 121.99,219.00 L 79.10 219.00 L 76.69 215.75 ZM 349.19 217.25 C347.20,215.54 303.96,139.97 304.04,138.33 C304.06,137.87 314.08,119.95 326.32,98.50 L 348.56 59.50 L 393.18 59.24 L 437.80 58.98 L 415.78 97.56 C403.66,118.77 393.76,137.11 393.76,138.32 C393.77,139.52 403.53,157.72 415.44,178.76 C427.35,199.81 436.83,217.47 436.49,218.01 C436.11,218.64 420.32,219.00 393.55,219.00 C354.68,219.00 351.06,218.86 349.19,217.25 ZM 620.72 217.75 C619.27,216.66 583.75,155.19 577.48,142.91 L 575.13 138.32 L 580.94 127.91 C593.13,106.06 619.17,60.47 619.88,59.74 C620.29,59.32 640.47,59.10 664.73,59.24 L 708.84 59.50 L 699.09 76.50 C674.32,119.69 665.00,136.61 665.00,138.40 C665.00,140.26 671.46,152.07 696.72,196.43 C702.97,207.39 707.85,216.95 707.57,217.68 C706.85,219.56 623.21,219.63 620.72,217.75 ZM 891.74 217.75 C890.84,217.06 884.38,206.38 877.38,194.00 C870.38,181.62 860.46,164.10 855.34,155.07 L 846.02 138.63 L 849.11 133.07 C850.82,130.00 861.00,112.09 871.74,93.25 L 891.27 59.00 L 935.60 59.00 L 979.93 59.00 L 978.07 62.25 C940.80,127.37 935.99,136.11 936.02,138.70 C936.03,139.69 945.87,157.82 957.88,179.00 C969.90,200.18 979.53,217.84 979.30,218.25 C979.07,218.66 959.64,219.00 936.13,219.00 C903.47,219.00 893.00,218.70 891.74,217.75 ZM 1162.77 217.75 C1161.00,216.38 1117.67,140.23 1117.67,138.49 C1117.67,137.90 1119.48,134.28 1121.71,130.46 C1127.07,121.21 1139.31,99.68 1151.95,77.25 L 1162.23 59.00 L 1206.65 59.00 C1248.65,59.00 1251.02,59.10 1250.11,60.75 C1249.59,61.71 1239.67,79.14 1228.08,99.47 C1216.49,119.80 1207.00,137.35 1207.01,138.47 C1207.01,139.59 1216.87,157.82 1228.91,179.00 C1240.96,200.17 1250.60,217.83 1250.35,218.25 C1250.09,218.66 1230.64,219.00 1207.13,219.00 C1174.46,219.00 1164.00,218.71 1162.77,217.75 Z" fill="rgb(254,254,254)"/>
</g>
</svg>